<svg xmlns="http://www.w3.org/2000/svg" xmlns:xlink="http://www.w3.org/1999/xlink" width="479" zoomAndPan="magnify" viewBox="0 0 359.25 359.249987" height="479" preserveAspectRatio="xMidYMid meet" version="1.0"><defs><clipPath id="2554c2cf75"><path d="M 0 0 L 358.5 0 L 358.5 358.5 L 0 358.5 Z M 0 0 " clip-rule="nonzero"/></clipPath><clipPath id="9e9945b59a"><path d="M 55 227 L 304 227 L 304 358.5 L 55 358.5 Z M 55 227 " clip-rule="nonzero"/></clipPath></defs><g clip-path="url(#2554c2cf75)"><path fill="#ffffff" d="M 0 0 L 358.5 0 L 358.5 358.5 L 0 358.5 Z M 0 0 " fill-opacity="1" fill-rule="nonzero"/><path fill="#d9deeb" d="M 358.5 179.25 C 358.5 182.359375 358.441406 185.40625 358.261719 188.453125 C 358.261719 188.511719 358.261719 188.570312 358.261719 188.570312 C 358.144531 190.960938 357.964844 193.292969 357.726562 195.621094 C 357.726562 196.339844 357.605469 197.117188 357.546875 197.832031 C 357.484375 198.429688 357.425781 199.085938 357.304688 199.683594 C 356.769531 205.003906 355.933594 210.203125 354.855469 215.339844 C 354.257812 218.269531 353.601562 221.195312 352.824219 224.003906 C 352.109375 226.871094 351.332031 229.738281 350.433594 232.546875 C 349.660156 234.9375 348.882812 237.386719 347.984375 239.71875 C 347.804688 240.375 347.566406 240.972656 347.328125 241.628906 C 346.433594 244.140625 345.417969 246.589844 344.402344 248.980469 C 343.742188 250.59375 343.027344 252.207031 342.191406 253.820312 C 341.59375 255.371094 340.875 256.867188 340.097656 258.359375 C 338.902344 260.808594 337.648438 263.257812 336.273438 265.648438 C 333.226562 271.265625 329.820312 276.703125 326.175781 281.902344 C 324.800781 283.875 323.429688 285.785156 321.992188 287.636719 C 320.203125 289.96875 318.410156 292.238281 316.496094 294.449219 C 314.882812 296.421875 313.152344 298.332031 311.417969 300.246094 C 310.582031 301.199219 309.683594 302.15625 308.730469 303.054688 C 307.476562 304.488281 306.101562 305.800781 304.726562 307.175781 L 304.667969 307.234375 C 304.546875 307.355469 304.367188 307.476562 304.25 307.59375 C 303.949219 307.894531 303.652344 308.191406 303.351562 308.429688 C 301.738281 310.042969 300.125 311.597656 298.453125 313.03125 C 296.480469 314.824219 294.449219 316.558594 292.359375 318.289062 C 291.761719 318.769531 291.101562 319.246094 290.445312 319.785156 C 288.832031 321.097656 287.160156 322.351562 285.425781 323.609375 C 283.394531 325.160156 281.304688 326.59375 279.152344 328.027344 C 277.359375 329.285156 275.566406 330.417969 273.777344 331.496094 C 272.339844 332.449219 270.847656 333.347656 269.292969 334.183594 C 267.441406 335.320312 265.53125 336.394531 263.617188 337.410156 C 261.109375 338.722656 258.597656 340.039062 255.96875 341.234375 C 252.683594 342.847656 249.335938 344.28125 245.933594 345.59375 C 244.019531 346.433594 242.046875 347.148438 240.078125 347.867188 C 237.386719 348.882812 234.640625 349.777344 231.832031 350.613281 C 229.261719 351.449219 226.632812 352.167969 224.003906 352.824219 C 222.390625 353.304688 220.777344 353.660156 219.105469 353.960938 C 217.730469 354.378906 216.296875 354.675781 214.863281 354.917969 C 211.335938 355.695312 207.8125 356.289062 204.167969 356.710938 C 201.894531 357.066406 199.625 357.367188 197.296875 357.605469 C 191.378906 358.203125 185.34375 358.5 179.25 358.5 C 173.15625 358.5 167.121094 358.203125 161.207031 357.605469 C 158.875 357.367188 156.605469 357.066406 154.335938 356.710938 C 150.691406 356.289062 147.164062 355.695312 143.640625 354.917969 C 142.207031 354.675781 140.773438 354.378906 139.398438 353.960938 C 137.722656 353.660156 136.109375 353.304688 134.496094 352.824219 C 131.867188 352.167969 129.238281 351.449219 126.671875 350.613281 C 123.863281 349.777344 121.113281 348.882812 118.425781 347.867188 C 116.453125 347.148438 114.480469 346.433594 112.570312 345.59375 C 109.164062 344.28125 105.816406 342.847656 102.53125 341.234375 C 99.902344 340.039062 97.394531 338.722656 94.882812 337.410156 C 92.972656 336.394531 91.117188 335.320312 89.265625 334.183594 C 87.714844 333.347656 86.21875 332.449219 84.726562 331.496094 C 82.933594 330.417969 81.140625 329.285156 79.347656 328.027344 C 77.195312 326.59375 75.105469 325.160156 73.074219 323.609375 C 71.339844 322.351562 69.667969 321.097656 68.054688 319.785156 C 67.398438 319.246094 66.742188 318.769531 66.144531 318.289062 C 64.050781 316.558594 62.019531 314.824219 60.050781 313.03125 C 58.375 311.597656 56.761719 310.042969 55.148438 308.429688 C 54.851562 308.191406 54.550781 307.894531 54.253906 307.59375 C 54.132812 307.476562 53.953125 307.355469 53.835938 307.234375 L 53.773438 307.175781 C 52.402344 305.800781 51.027344 304.488281 49.773438 303.054688 C 48.816406 302.15625 47.917969 301.199219 47.082031 300.246094 C 45.351562 298.332031 43.617188 296.421875 42.003906 294.449219 C 40.09375 292.238281 38.300781 289.96875 36.507812 287.636719 C 35.074219 285.785156 33.699219 283.875 32.324219 281.902344 C 28.679688 276.703125 25.273438 271.265625 22.226562 265.648438 C 20.851562 263.257812 19.597656 260.808594 18.402344 258.359375 C 17.625 256.867188 16.910156 255.371094 16.3125 253.820312 C 15.476562 252.207031 14.757812 250.59375 14.101562 248.980469 C 13.085938 246.589844 12.070312 244.140625 11.171875 241.628906 C 10.933594 240.972656 10.695312 240.375 10.515625 239.71875 C 9.621094 237.386719 8.84375 234.9375 8.066406 232.546875 C 7.171875 229.738281 6.394531 226.871094 5.675781 224.003906 C 4.898438 221.195312 4.242188 218.269531 3.644531 215.339844 C 2.570312 210.203125 1.734375 205.003906 1.195312 199.683594 C 1.074219 199.089844 1.015625 198.429688 0.957031 197.832031 C 0.894531 197.117188 0.777344 196.339844 0.777344 195.621094 C 0.539062 193.292969 0.359375 190.960938 0.238281 188.570312 C 0.238281 188.570312 0.238281 188.511719 0.238281 188.453125 C 0.0585938 185.40625 0 182.359375 0 179.25 C 0 80.246094 80.246094 0 179.25 0 C 278.257812 0 358.5 80.246094 358.5 179.25 Z M 358.5 179.25 " fill-opacity="1" fill-rule="nonzero"/><path fill="#d9deeb" d="M 358.5 179.25 C 358.5 182.359375 358.441406 185.40625 358.261719 188.453125 C 358.261719 188.511719 358.261719 188.570312 358.261719 188.570312 C 358.144531 190.960938 357.964844 193.292969 357.726562 195.621094 C 357.726562 196.339844 357.605469 197.117188 357.546875 197.832031 C 357.484375 198.429688 357.425781 199.085938 357.304688 199.683594 C 356.769531 205.003906 355.933594 210.203125 354.855469 215.339844 C 354.257812 218.269531 353.601562 221.195312 352.824219 224.003906 C 352.109375 226.871094 351.332031 229.738281 350.433594 232.546875 C 349.660156 234.9375 348.882812 237.386719 347.984375 239.71875 C 347.804688 240.375 347.566406 240.972656 347.328125 241.628906 C 346.433594 244.140625 345.417969 246.589844 344.402344 248.980469 C 343.742188 250.59375 343.027344 252.207031 342.191406 253.820312 C 341.59375 255.371094 340.875 256.867188 340.097656 258.359375 C 338.902344 260.808594 337.648438 263.257812 336.273438 265.648438 C 333.226562 271.265625 329.820312 276.703125 326.175781 281.902344 C 324.800781 283.875 323.429688 285.785156 321.992188 287.636719 C 320.203125 289.96875 318.410156 292.238281 316.496094 294.449219 C 314.882812 296.421875 313.152344 298.332031 311.417969 300.246094 C 310.582031 301.199219 309.683594 302.15625 308.730469 303.054688 C 307.476562 304.488281 306.101562 305.800781 304.726562 307.175781 L 304.667969 307.234375 C 304.546875 307.355469 304.367188 307.476562 304.25 307.59375 C 303.949219 307.894531 303.652344 308.191406 303.351562 308.429688 C 301.738281 310.042969 300.125 311.597656 298.453125 313.03125 C 296.480469 314.824219 294.449219 316.558594 292.359375 318.289062 C 291.761719 318.769531 291.101562 319.246094 290.445312 319.785156 C 288.832031 321.097656 287.160156 322.351562 285.425781 323.609375 C 283.394531 325.160156 281.304688 326.59375 279.152344 328.027344 C 277.359375 329.285156 275.566406 330.417969 273.777344 331.496094 C 272.339844 332.449219 270.847656 333.347656 269.292969 334.183594 C 267.441406 335.320312 265.53125 336.394531 263.617188 337.410156 C 261.109375 338.722656 258.597656 340.039062 255.96875 341.234375 C 252.683594 342.847656 249.335938 344.28125 245.933594 345.59375 C 244.019531 346.433594 242.046875 347.148438 240.078125 347.867188 C 237.386719 348.882812 234.640625 349.777344 231.832031 350.613281 C 229.261719 351.449219 226.632812 352.167969 224.003906 352.824219 C 222.390625 353.304688 220.777344 353.660156 219.105469 353.960938 C 217.730469 354.378906 216.296875 354.675781 214.863281 354.917969 C 211.335938 355.695312 207.8125 356.289062 204.167969 356.710938 C 201.894531 357.066406 199.625 357.367188 197.296875 357.605469 C 191.378906 358.203125 185.34375 358.5 179.25 358.5 C 173.15625 358.5 167.121094 358.203125 161.207031 357.605469 C 158.875 357.367188 156.605469 357.066406 154.335938 356.710938 C 150.691406 356.289062 147.164062 355.695312 143.640625 354.917969 C 142.207031 354.675781 140.773438 354.378906 139.398438 353.960938 C 137.722656 353.660156 136.109375 353.304688 134.496094 352.824219 C 131.867188 352.167969 129.238281 351.449219 126.671875 350.613281 C 123.863281 349.777344 121.113281 348.882812 118.425781 347.867188 C 116.453125 347.148438 114.480469 346.433594 112.570312 345.59375 C 109.164062 344.28125 105.816406 342.847656 102.53125 341.234375 C 99.902344 340.039062 97.394531 338.722656 94.882812 337.410156 C 92.972656 336.394531 91.117188 335.320312 89.265625 334.183594 C 87.714844 333.347656 86.21875 332.449219 84.726562 331.496094 C 82.933594 330.417969 81.140625 329.285156 79.347656 328.027344 C 77.195312 326.59375 75.105469 325.160156 73.074219 323.609375 C 71.339844 322.351562 69.667969 321.097656 68.054688 319.785156 C 67.398438 319.246094 66.742188 318.769531 66.144531 318.289062 C 64.050781 316.558594 62.019531 314.824219 60.050781 313.03125 C 58.375 311.597656 56.761719 310.042969 55.148438 308.429688 C 54.851562 308.191406 54.550781 307.894531 54.253906 307.59375 C 54.132812 307.476562 53.953125 307.355469 53.835938 307.234375 L 53.773438 307.175781 C 52.402344 305.800781 51.027344 304.488281 49.773438 303.054688 C 48.816406 302.15625 47.917969 301.199219 47.082031 300.246094 C 45.351562 298.332031 43.617188 296.421875 42.003906 294.449219 C 40.09375 292.238281 38.300781 289.96875 36.507812 287.636719 C 35.074219 285.785156 33.699219 283.875 32.324219 281.902344 C 28.679688 276.703125 25.273438 271.265625 22.226562 265.648438 C 20.851562 263.257812 19.597656 260.808594 18.402344 258.359375 C 17.625 256.867188 16.910156 255.371094 16.3125 253.820312 C 15.476562 252.207031 14.757812 250.59375 14.101562 248.980469 C 13.085938 246.589844 12.070312 244.140625 11.171875 241.628906 C 10.933594 240.972656 10.695312 240.375 10.515625 239.71875 C 9.621094 237.386719 8.84375 234.9375 8.066406 232.546875 C 7.171875 229.738281 6.394531 226.871094 5.675781 224.003906 C 4.898438 221.195312 4.242188 218.269531 3.644531 215.339844 C 2.570312 210.203125 1.734375 205.003906 1.195312 199.683594 C 1.074219 199.089844 1.015625 198.429688 0.957031 197.832031 C 0.894531 197.117188 0.777344 196.339844 0.777344 195.621094 C 0.539062 193.292969 0.359375 190.960938 0.238281 188.570312 C 0.238281 188.570312 0.238281 188.511719 0.238281 188.453125 C 0.0585938 185.40625 0 182.359375 0 179.25 C 0 80.246094 80.246094 0 179.25 0 C 278.257812 0 358.5 80.246094 358.5 179.25 Z M 358.5 179.25 " fill-opacity="1" fill-rule="nonzero"/></g><path fill="#a4a8b3" d="M 244.976562 137.425781 C 244.976562 138.5 244.949219 139.578125 244.898438 140.652344 C 244.84375 141.726562 244.765625 142.796875 244.660156 143.867188 C 244.554688 144.9375 244.421875 146.003906 244.265625 147.070312 C 244.105469 148.132812 243.921875 149.191406 243.714844 150.246094 C 243.503906 151.304688 243.269531 152.351562 243.007812 153.394531 C 242.746094 154.4375 242.457031 155.476562 242.144531 156.503906 C 241.832031 157.535156 241.496094 158.554688 241.132812 159.566406 C 240.773438 160.582031 240.382812 161.582031 239.972656 162.578125 C 239.5625 163.570312 239.125 164.554688 238.664062 165.527344 C 238.207031 166.5 237.722656 167.460938 237.214844 168.410156 C 236.707031 169.355469 236.179688 170.292969 235.625 171.214844 C 235.070312 172.136719 234.496094 173.046875 233.898438 173.941406 C 233.300781 174.835938 232.683594 175.714844 232.042969 176.578125 C 231.402344 177.441406 230.738281 178.289062 230.058594 179.121094 C 229.375 179.953125 228.671875 180.765625 227.949219 181.5625 C 227.226562 182.359375 226.484375 183.140625 225.726562 183.902344 C 224.964844 184.660156 224.1875 185.402344 223.390625 186.125 C 222.59375 186.847656 221.777344 187.550781 220.945312 188.230469 C 220.113281 188.914062 219.265625 189.574219 218.402344 190.214844 C 217.539062 190.855469 216.660156 191.476562 215.765625 192.074219 C 214.871094 192.671875 213.964844 193.246094 213.039062 193.800781 C 212.117188 194.351562 211.183594 194.882812 210.234375 195.390625 C 209.285156 195.898438 208.324219 196.378906 207.351562 196.839844 C 206.378906 197.300781 205.398438 197.734375 204.402344 198.148438 C 203.410156 198.558594 202.40625 198.945312 201.394531 199.308594 C 200.378906 199.671875 199.359375 200.007812 198.328125 200.320312 C 197.300781 200.632812 196.265625 200.917969 195.222656 201.179688 C 194.175781 201.441406 193.128906 201.679688 192.074219 201.886719 C 191.019531 202.097656 189.957031 202.28125 188.894531 202.441406 C 187.832031 202.597656 186.761719 202.730469 185.691406 202.835938 C 184.621094 202.941406 183.550781 203.019531 182.476562 203.070312 C 181.402344 203.125 180.328125 203.152344 179.25 203.152344 C 178.175781 203.152344 177.101562 203.125 176.027344 203.070312 C 174.953125 203.019531 173.878906 202.941406 172.808594 202.835938 C 171.738281 202.730469 170.671875 202.597656 169.605469 202.441406 C 168.542969 202.28125 167.484375 202.097656 166.429688 201.886719 C 165.375 201.679688 164.324219 201.441406 163.28125 201.179688 C 162.238281 200.917969 161.199219 200.632812 160.171875 200.320312 C 159.140625 200.007812 158.121094 199.671875 157.109375 199.308594 C 156.097656 198.945312 155.09375 198.558594 154.097656 198.148438 C 153.105469 197.734375 152.121094 197.300781 151.148438 196.839844 C 150.175781 196.378906 149.214844 195.898438 148.269531 195.390625 C 147.320312 194.882812 146.382812 194.351562 145.460938 193.800781 C 144.539062 193.246094 143.628906 192.671875 142.734375 192.074219 C 141.839844 191.476562 140.960938 190.855469 140.097656 190.214844 C 139.234375 189.574219 138.386719 188.914062 137.554688 188.230469 C 136.722656 187.550781 135.910156 186.847656 135.113281 186.125 C 134.316406 185.402344 133.535156 184.660156 132.777344 183.902344 C 132.015625 183.140625 131.273438 182.359375 130.550781 181.5625 C 129.828125 180.765625 129.125 179.953125 128.445312 179.121094 C 127.761719 178.289062 127.101562 177.441406 126.460938 176.578125 C 125.820312 175.714844 125.199219 174.835938 124.601562 173.941406 C 124.003906 173.046875 123.429688 172.136719 122.875 171.214844 C 122.324219 170.292969 121.792969 169.355469 121.285156 168.410156 C 120.777344 167.460938 120.296875 166.5 119.835938 165.527344 C 119.375 164.554688 118.941406 163.570312 118.527344 162.578125 C 118.117188 161.582031 117.730469 160.582031 117.367188 159.566406 C 117.003906 158.554688 116.667969 157.535156 116.355469 156.503906 C 116.042969 155.476562 115.757812 154.4375 115.496094 153.394531 C 115.234375 152.351562 115 151.304688 114.789062 150.246094 C 114.578125 149.191406 114.394531 148.132812 114.238281 147.070312 C 114.078125 146.003906 113.949219 144.9375 113.84375 143.867188 C 113.738281 142.796875 113.65625 141.726562 113.605469 140.652344 C 113.550781 139.578125 113.527344 138.5 113.527344 137.425781 C 113.527344 136.351562 113.550781 135.273438 113.605469 134.199219 C 113.65625 133.125 113.738281 132.054688 113.84375 130.984375 C 113.949219 129.914062 114.078125 128.84375 114.238281 127.78125 C 114.394531 126.71875 114.578125 125.65625 114.789062 124.601562 C 115 123.546875 115.234375 122.5 115.496094 121.457031 C 115.757812 120.414062 116.042969 119.375 116.355469 118.347656 C 116.667969 117.316406 117.003906 116.296875 117.367188 115.285156 C 117.730469 114.269531 118.117188 113.265625 118.527344 112.273438 C 118.941406 111.28125 119.375 110.296875 119.835938 109.324219 C 120.296875 108.351562 120.777344 107.390625 121.285156 106.441406 C 121.792969 105.496094 122.324219 104.558594 122.875 103.636719 C 123.429688 102.714844 124.003906 101.804688 124.601562 100.910156 C 125.199219 100.015625 125.820312 99.136719 126.460938 98.273438 C 127.101562 97.410156 127.761719 96.5625 128.445312 95.730469 C 129.125 94.898438 129.828125 94.085938 130.550781 93.289062 C 131.273438 92.488281 132.015625 91.710938 132.777344 90.949219 C 133.535156 90.191406 134.316406 89.449219 135.113281 88.726562 C 135.910156 88.003906 136.722656 87.300781 137.554688 86.621094 C 138.386719 85.9375 139.234375 85.273438 140.097656 84.632812 C 140.960938 83.992188 141.839844 83.375 142.734375 82.777344 C 143.628906 82.179688 144.539062 81.605469 145.460938 81.050781 C 146.382812 80.5 147.320312 79.96875 148.269531 79.460938 C 149.214844 78.953125 150.175781 78.46875 151.148438 78.011719 C 152.121094 77.550781 153.105469 77.113281 154.097656 76.703125 C 155.09375 76.292969 156.097656 75.90625 157.109375 75.542969 C 158.121094 75.179688 159.140625 74.84375 160.171875 74.53125 C 161.199219 74.21875 162.238281 73.929688 163.28125 73.671875 C 164.324219 73.410156 165.375 73.171875 166.429688 72.964844 C 167.484375 72.753906 168.542969 72.570312 169.605469 72.410156 C 170.671875 72.253906 171.738281 72.121094 172.808594 72.015625 C 173.878906 71.910156 174.953125 71.832031 176.027344 71.78125 C 177.101562 71.726562 178.175781 71.699219 179.25 71.699219 C 180.328125 71.699219 181.402344 71.726562 182.476562 71.78125 C 183.550781 71.832031 184.621094 71.910156 185.691406 72.015625 C 186.761719 72.121094 187.832031 72.253906 188.894531 72.410156 C 189.957031 72.570312 191.019531 72.753906 192.074219 72.964844 C 193.128906 73.171875 194.175781 73.410156 195.222656 73.671875 C 196.265625 73.929688 197.300781 74.21875 198.328125 74.53125 C 199.359375 74.84375 200.378906 75.179688 201.394531 75.542969 C 202.40625 75.90625 203.410156 76.292969 204.402344 76.703125 C 205.398438 77.113281 206.378906 77.550781 207.351562 78.011719 C 208.324219 78.46875 209.285156 78.953125 210.234375 79.460938 C 211.183594 79.96875 212.117188 80.5 213.039062 81.050781 C 213.964844 81.605469 214.871094 82.179688 215.765625 82.777344 C 216.660156 83.375 217.539062 83.992188 218.402344 84.632812 C 219.265625 85.273438 220.113281 85.9375 220.945312 86.621094 C 221.777344 87.300781 222.59375 88.003906 223.390625 88.726562 C 224.1875 89.449219 224.964844 90.191406 225.726562 90.949219 C 226.484375 91.710938 227.226562 92.488281 227.949219 93.289062 C 228.671875 94.085938 229.375 94.898438 230.058594 95.730469 C 230.738281 96.5625 231.402344 97.410156 232.042969 98.273438 C 232.683594 99.136719 233.300781 100.015625 233.898438 100.910156 C 234.496094 101.804688 235.070312 102.714844 235.625 103.636719 C 236.179688 104.558594 236.707031 105.496094 237.214844 106.441406 C 237.722656 107.390625 238.207031 108.351562 238.664062 109.324219 C 239.125 110.296875 239.5625 111.28125 239.972656 112.273438 C 240.382812 113.265625 240.773438 114.269531 241.132812 115.285156 C 241.496094 116.296875 241.832031 117.316406 242.144531 118.347656 C 242.457031 119.375 242.746094 120.414062 243.007812 121.457031 C 243.269531 122.5 243.503906 123.546875 243.714844 124.601562 C 243.921875 125.65625 244.105469 126.71875 244.265625 127.78125 C 244.421875 128.84375 244.554688 129.914062 244.660156 130.984375 C 244.765625 132.054688 244.84375 133.125 244.898438 134.199219 C 244.949219 135.273438 244.976562 136.351562 244.976562 137.425781 Z M 244.976562 137.425781 " fill-opacity="1" fill-rule="nonzero"/><g clip-path="url(#9e9945b59a)"><path fill="#a4a8b3" d="M 303.351562 308.429688 C 301.738281 310.042969 300.125 311.597656 298.453125 313.03125 C 296.480469 314.824219 294.449219 316.558594 292.359375 318.289062 C 291.761719 318.769531 291.101562 319.246094 290.445312 319.785156 C 288.832031 321.097656 287.160156 322.351562 285.425781 323.609375 C 283.394531 325.160156 281.304688 326.59375 279.152344 328.027344 C 277.359375 329.285156 275.566406 330.417969 273.777344 331.496094 C 272.339844 332.449219 270.847656 333.347656 269.292969 334.183594 C 267.441406 335.320312 265.53125 336.394531 263.617188 337.410156 C 261.109375 338.722656 258.597656 340.039062 255.96875 341.234375 C 252.683594 342.847656 249.335938 344.28125 245.933594 345.59375 C 244.019531 346.433594 242.046875 347.148438 240.078125 347.867188 C 237.386719 348.882812 234.640625 349.777344 231.832031 350.613281 C 229.261719 351.449219 226.632812 352.167969 224.003906 352.824219 C 222.390625 353.304688 220.777344 353.660156 219.105469 353.960938 C 217.730469 354.378906 216.296875 354.675781 214.863281 354.917969 C 211.335938 355.691406 207.8125 356.289062 204.167969 356.710938 C 201.894531 357.066406 199.625 357.367188 197.296875 357.605469 C 191.378906 358.203125 185.34375 358.5 179.25 358.5 C 173.15625 358.5 167.121094 358.203125 161.207031 357.605469 C 158.875 357.367188 156.605469 357.066406 154.335938 356.710938 C 150.691406 356.289062 147.164062 355.691406 143.640625 354.917969 C 142.207031 354.675781 140.773438 354.378906 139.398438 353.960938 C 137.722656 353.660156 136.109375 353.304688 134.496094 352.824219 C 131.867188 352.167969 129.238281 351.449219 126.671875 350.613281 C 123.863281 349.777344 121.113281 348.882812 118.425781 347.867188 C 116.453125 347.148438 114.480469 346.433594 112.570312 345.59375 C 109.164062 344.28125 105.816406 342.847656 102.53125 341.234375 C 99.902344 340.039062 97.394531 338.722656 94.882812 337.410156 C 92.972656 336.394531 91.117188 335.320312 89.265625 334.183594 C 87.714844 333.347656 86.21875 332.449219 84.726562 331.496094 C 82.933594 330.417969 81.140625 329.285156 79.347656 328.027344 C 77.199219 326.59375 75.105469 325.160156 73.074219 323.609375 C 71.34375 322.351562 69.667969 321.097656 68.054688 319.785156 C 67.398438 319.246094 66.742188 318.769531 66.144531 318.289062 C 64.050781 316.558594 62.019531 314.824219 60.050781 313.03125 C 58.375 311.597656 56.761719 310.042969 55.148438 308.429688 C 63.277344 258.957031 109.105469 227.050781 179.25 227.050781 C 249.398438 227.050781 295.226562 258.957031 303.351562 308.429688 Z M 303.351562 308.429688 " fill-opacity="1" fill-rule="nonzero"/></g></svg>