<svg xmlns="http://www.w3.org/2000/svg" xmlns:xlink="http://www.w3.org/1999/xlink" width="450" zoomAndPan="magnify" viewBox="0 0 337.5 337.500003" height="450" preserveAspectRatio="xMidYMid meet" version="1.0"><defs><clipPath id="c05b328b42"><path d="M 0 0 L 337 0 L 337 337 L 0 337 Z M 0 0 " clip-rule="nonzero"/></clipPath><clipPath id="864ecbcfda"><path d="M 248.457031 11.234375 L 194.933594 140.085938 L 324.445312 86.5625 L 337 114.316406 L 206.824219 167.839844 L 337 221.363281 L 324.445312 248.457031 L 194.933594 194.933594 L 248.457031 324.445312 L 221.363281 337 L 167.839844 206.824219 L 114.316406 337 L 87.222656 324.445312 L 140.085938 194.933594 L 11.234375 248.457031 L 0 221.363281 L 128.851562 167.839844 L 0 114.316406 L 11.234375 87.222656 L 140.085938 140.085938 L 87.222656 11.234375 L 114.316406 0 L 167.839844 128.851562 L 221.363281 0 Z M 248.457031 11.234375 " clip-rule="nonzero"/></clipPath><clipPath id="67871d3d3c"><path d="M 0 0 L 337 0 L 337 337 L 0 337 Z M 0 0 " clip-rule="nonzero"/></clipPath><clipPath id="075b6ae5ed"><path d="M 248.457031 11.234375 L 194.933594 140.085938 L 324.445312 86.5625 L 337 114.316406 L 206.824219 167.839844 L 337 221.363281 L 324.445312 248.457031 L 194.933594 194.933594 L 248.457031 324.445312 L 221.363281 337 L 167.839844 206.824219 L 114.316406 337 L 87.222656 324.445312 L 140.085938 194.933594 L 11.234375 248.457031 L 0 221.363281 L 128.851562 167.839844 L 0 114.316406 L 11.234375 87.222656 L 140.085938 140.085938 L 87.222656 11.234375 L 114.316406 0 L 167.839844 128.851562 L 221.363281 0 Z M 248.457031 11.234375 " clip-rule="nonzero"/></clipPath><clipPath id="10df1ad406"><rect x="0" width="337" y="0" height="337"/></clipPath></defs><g clip-path="url(#c05b328b42)"><g clip-path="url(#864ecbcfda)"><g transform="matrix(1, 0, 0, 1, 0, -0.000000000000000931)"><g clip-path="url(#10df1ad406)"><g clip-path="url(#67871d3d3c)"><g clip-path="url(#075b6ae5ed)"><rect x="-74.25" width="486" fill="#000000" height="486.000004" y="-74.250001" fill-opacity="1"/></g></g></g></g></g></g></svg>