<svg xmlns="http://www.w3.org/2000/svg" xmlns:xlink="http://www.w3.org/1999/xlink" width="454" zoomAndPan="magnify" viewBox="0 0 340.5 164.249993" height="219" preserveAspectRatio="xMidYMid meet" version="1.0"><defs><g/><clipPath id="6e71c14a51"><path d="M 0.652344 13 L 66.589844 13 L 66.589844 86 L 0.652344 86 Z M 0.652344 13 " clip-rule="nonzero"/></clipPath><clipPath id="c1588b3356"><rect x="0" width="67" y="0" height="103"/></clipPath><clipPath id="79f50a2470"><path d="M 0.378906 13 L 40 13 L 40 86 L 0.378906 86 Z M 0.378906 13 " clip-rule="nonzero"/></clipPath><clipPath id="21af531da1"><rect x="0" width="41" y="0" height="103"/></clipPath><clipPath id="17b2d61804"><path d="M 0.136719 13 L 66.554688 13 L 66.554688 86 L 0.136719 86 Z M 0.136719 13 " clip-rule="nonzero"/></clipPath><clipPath id="90c64e6fb2"><rect x="0" width="67" y="0" height="103"/></clipPath><clipPath id="38fa563207"><path d="M 0.28125 13 L 66 13 L 66 86 L 0.28125 86 Z M 0.28125 13 " clip-rule="nonzero"/></clipPath><clipPath id="fb60b6de13"><rect x="0" width="67" y="0" height="103"/></clipPath><clipPath id="5c7686d779"><path d="M 0.160156 13 L 65.859375 13 L 65.859375 86 L 0.160156 86 Z M 0.160156 13 " clip-rule="nonzero"/></clipPath><clipPath id="b156c6af6e"><rect x="0" width="66" y="0" height="103"/></clipPath><clipPath id="4083f73318"><path d="M 1 13 L 66.417969 13 L 66.417969 86 L 1 86 Z M 1 13 " clip-rule="nonzero"/></clipPath><clipPath id="8efde2c213"><rect x="0" width="67" y="0" height="103"/></clipPath></defs><g transform="matrix(1, 0, 0, 1, 261, 30)"><g clip-path="url(#c1588b3356)"><g clip-path="url(#6e71c14a51)"><g fill="#ffffff" fill-opacity="1"><g transform="translate(2.251639, 81.856098)"><g><path d="M 63.402344 -16.960938 L 63.402344 -11.339844 C 63.402344 -10.835938 63.417969 -10.058594 63.449219 -9.007812 C 63.484375 -7.949219 63.53125 -6.800781 63.601562 -5.570312 C 63.667969 -4.292969 63.722656 -3.199219 63.753906 -2.292969 L 63.808594 -0.890625 L 63.808594 -0.816406 C 63.808594 0.511719 63.367188 1.621094 62.484375 2.503906 C 61.597656 3.390625 60.492188 3.832031 59.160156 3.832031 L 3.882812 3.832031 C 2.292969 3.832031 1.007812 3.304688 0.0273438 2.25 C -0.949219 1.199219 -1.378906 -0.121094 -1.269531 -1.703125 L 2.554688 -1.429688 L -1.273438 -1.582031 C -1.070312 -6.648438 -0.953125 -11.734375 -0.917969 -16.832031 L -0.765625 -32.324219 C -0.699219 -37.433594 -0.507812 -42.574219 -0.199219 -47.742188 C 0.09375 -52.585938 -0.117188 -57.394531 -0.828125 -62.171875 C -1.089844 -63.742188 -0.679688 -65.136719 0.40625 -66.355469 C 1.441406 -67.519531 2.734375 -68.101562 4.292969 -68.101562 L 58.75 -68.101562 C 59.808594 -68.101562 60.746094 -67.792969 61.5625 -67.179688 C 62.335938 -66.601562 62.882812 -65.828125 63.203125 -64.867188 L 63.402344 -64.277344 L 63.402344 -63.65625 C 63.402344 -63.507812 63.382812 -63.121094 63.34375 -62.496094 C 63.304688 -61.875 63.246094 -61.25 63.167969 -60.625 L 59.363281 -61.101562 L 63.195312 -61.101562 C 63.195312 -60.691406 63.160156 -59.835938 63.089844 -58.539062 C 63.023438 -57.351562 62.972656 -56.113281 62.941406 -54.820312 C 62.90625 -53.527344 62.890625 -52.554688 62.890625 -51.90625 C 62.890625 -51.3125 62.921875 -50.566406 62.984375 -49.667969 C 63.046875 -48.757812 63.125 -47.949219 63.214844 -47.242188 L 63.402344 -45.820312 L 63.402344 -45.570312 C 63.402344 -44.152344 62.894531 -42.992188 61.886719 -42.09375 C 61.003906 -41.3125 59.925781 -40.921875 58.648438 -40.921875 L 58.601562 -40.921875 L 56.558594 -40.972656 C 55.261719 -41.007812 53.609375 -41.023438 51.597656 -41.023438 L 45.109375 -41.023438 C 42.875 -41.023438 40.808594 -40.992188 38.910156 -40.925781 C 37.082031 -40.859375 35.679688 -40.765625 34.703125 -40.644531 C 34.074219 -40.5625 33.402344 -40.359375 32.691406 -40.035156 C 32.800781 -40.085938 32.910156 -40.183594 33.011719 -40.332031 C 33.066406 -40.40625 33.101562 -40.480469 33.128906 -40.546875 L 33.132812 -40.550781 C 33.183594 -41.09375 33.027344 -41.535156 32.660156 -41.878906 C 32.890625 -41.664062 33.113281 -41.507812 33.332031 -41.410156 L 31.777344 -37.90625 L 32.527344 -41.664062 C 32.667969 -41.636719 33.539062 -41.59375 35.140625 -41.53125 C 36.898438 -41.464844 39.011719 -41.433594 41.484375 -41.433594 C 43.988281 -41.433594 46.507812 -41.449219 49.042969 -41.484375 C 51.617188 -41.519531 53.796875 -41.535156 55.585938 -41.535156 L 58.648438 -41.535156 C 59.925781 -41.535156 61.003906 -41.144531 61.886719 -40.363281 C 62.894531 -39.464844 63.402344 -38.304688 63.402344 -36.886719 L 63.402344 -24.726562 C 63.402344 -23.308594 62.894531 -22.148438 61.886719 -21.25 C 61.003906 -20.46875 59.925781 -20.078125 58.648438 -20.078125 C 57.46875 -20.078125 55.832031 -20.09375 53.734375 -20.128906 C 51.636719 -20.164062 49.472656 -20.214844 47.242188 -20.285156 C 45.042969 -20.351562 43.0625 -20.402344 41.308594 -20.4375 C 39.5625 -20.46875 38.394531 -20.484375 37.804688 -20.484375 L 37.804688 -24.316406 L 38.1875 -20.503906 C 37.378906 -20.425781 36.417969 -20.382812 35.300781 -20.382812 C 34.699219 -20.382812 34.136719 -20.304688 33.617188 -20.144531 C 33.777344 -20.195312 33.898438 -20.296875 33.976562 -20.457031 C 33.933594 -20.375 33.910156 -20.324219 33.898438 -20.300781 C 33.902344 -20.304688 33.90625 -20.316406 33.910156 -20.332031 C 33.9375 -20.457031 33.945312 -20.597656 33.929688 -20.761719 C 33.890625 -21.167969 33.753906 -21.484375 33.511719 -21.714844 C 33.90625 -21.335938 34.320312 -21.09375 34.75 -20.984375 L 33.820312 -17.269531 L 34.570312 -21.023438 C 35.003906 -20.9375 36.152344 -20.894531 38.011719 -20.894531 C 40.074219 -20.894531 42.425781 -20.945312 45.066406 -21.046875 L 52.828125 -21.351562 C 55.296875 -21.453125 57.167969 -21.539062 58.449219 -21.605469 L 58.546875 -21.609375 L 58.648438 -21.609375 C 59.925781 -21.609375 61.003906 -21.21875 61.886719 -20.4375 C 62.894531 -19.539062 63.402344 -18.382812 63.402344 -16.960938 Z M 55.738281 -16.960938 C 55.738281 -16.085938 56.089844 -15.335938 56.792969 -14.710938 C 57.367188 -14.203125 57.984375 -13.945312 58.648438 -13.945312 L 58.648438 -17.777344 L 58.851562 -13.953125 C 57.542969 -13.882812 55.636719 -13.796875 53.128906 -13.695312 L 45.359375 -13.386719 C 42.621094 -13.285156 40.171875 -13.230469 38.011719 -13.230469 C 35.644531 -13.230469 34 -13.324219 33.070312 -13.511719 L 32.980469 -13.527344 L 32.890625 -13.550781 C 31.140625 -13.988281 29.578125 -14.867188 28.203125 -16.191406 C 27.074219 -17.273438 26.441406 -18.554688 26.300781 -20.035156 C 26.179688 -21.328125 26.453125 -22.613281 27.125 -23.886719 C 28.019531 -25.679688 29.433594 -26.875 31.367188 -27.46875 C 32.617188 -27.855469 33.929688 -28.046875 35.300781 -28.046875 C 36.164062 -28.046875 36.871094 -28.074219 37.425781 -28.132812 L 37.613281 -28.148438 L 37.804688 -28.148438 C 38.441406 -28.148438 39.660156 -28.132812 41.457031 -28.097656 C 43.242188 -28.0625 45.25 -28.011719 47.476562 -27.945312 C 49.671875 -27.875 51.800781 -27.824219 53.859375 -27.792969 C 55.914062 -27.757812 57.511719 -27.742188 58.648438 -27.742188 C 57.984375 -27.742188 57.367188 -27.488281 56.792969 -26.976562 C 56.089844 -26.351562 55.738281 -25.601562 55.738281 -24.726562 L 55.738281 -36.886719 C 55.738281 -36.011719 56.089844 -35.261719 56.792969 -34.636719 C 57.367188 -34.125 57.984375 -33.871094 58.648438 -33.871094 L 55.585938 -33.871094 C 53.828125 -33.871094 51.683594 -33.855469 49.148438 -33.820312 C 46.574219 -33.785156 44.019531 -33.769531 41.484375 -33.769531 C 38.914062 -33.769531 36.703125 -33.804688 34.851562 -33.875 C 32.839844 -33.949219 31.566406 -34.042969 31.027344 -34.148438 L 30.609375 -34.234375 L 30.222656 -34.40625 C 29.214844 -34.855469 28.277344 -35.480469 27.417969 -36.289062 C 25.964844 -37.652344 25.332031 -39.355469 25.515625 -41.394531 C 25.65625 -42.65625 26.0625 -43.769531 26.734375 -44.730469 C 27.433594 -45.730469 28.367188 -46.492188 29.535156 -47.019531 C 30.933594 -47.652344 32.339844 -48.0625 33.753906 -48.25 C 34.957031 -48.398438 36.585938 -48.511719 38.640625 -48.582031 C 40.628906 -48.652344 42.785156 -48.6875 45.109375 -48.6875 L 51.597656 -48.6875 C 53.675781 -48.6875 55.394531 -48.671875 56.753906 -48.636719 L 58.746094 -48.585938 L 58.648438 -44.753906 L 58.648438 -48.585938 C 57.984375 -48.585938 57.367188 -48.332031 56.792969 -47.820312 C 56.089844 -47.195312 55.738281 -46.445312 55.738281 -45.570312 L 59.570312 -45.570312 L 55.769531 -45.074219 L 55.617188 -46.25 C 55.503906 -47.109375 55.410156 -48.074219 55.335938 -49.140625 C 55.261719 -50.214844 55.226562 -51.136719 55.226562 -51.90625 C 55.226562 -52.621094 55.242188 -53.65625 55.277344 -55.019531 C 55.3125 -56.382812 55.367188 -57.699219 55.4375 -58.964844 C 55.5 -60.121094 55.53125 -60.832031 55.53125 -61.101562 L 55.53125 -61.339844 L 55.5625 -61.578125 C 55.621094 -62.042969 55.664062 -62.507812 55.695312 -62.976562 C 55.710938 -63.238281 55.722656 -63.445312 55.730469 -63.585938 C 55.734375 -63.652344 55.738281 -63.699219 55.738281 -63.734375 C 55.738281 -63.742188 55.738281 -63.746094 55.738281 -63.746094 C 55.738281 -63.71875 55.738281 -63.691406 55.738281 -63.65625 L 59.570312 -63.65625 L 55.933594 -62.445312 C 56.117188 -61.890625 56.460938 -61.425781 56.964844 -61.050781 C 57.507812 -60.640625 58.105469 -60.4375 58.75 -60.4375 L 4.292969 -60.4375 C 5.03125 -60.4375 5.644531 -60.710938 6.132812 -61.265625 C 6.671875 -61.871094 6.878906 -62.546875 6.753906 -63.300781 C 7.542969 -57.996094 7.773438 -52.65625 7.453125 -47.28125 C 7.148438 -42.234375 6.964844 -37.222656 6.898438 -32.25 L 6.742188 -16.78125 C 6.710938 -11.597656 6.589844 -6.429688 6.382812 -1.277344 L 6.378906 -1.21875 L 6.375 -1.15625 C 6.390625 -1.339844 6.367188 -1.546875 6.304688 -1.777344 C 6.191406 -2.21875 5.96875 -2.613281 5.644531 -2.964844 C 5.316406 -3.316406 4.9375 -3.566406 4.5 -3.714844 C 4.273438 -3.792969 4.070312 -3.832031 3.882812 -3.832031 L 59.160156 -3.832031 C 58.375 -3.832031 57.675781 -3.527344 57.0625 -2.914062 C 56.453125 -2.300781 56.144531 -1.601562 56.144531 -0.816406 L 59.976562 -0.816406 L 56.148438 -0.671875 L 56.097656 -2 C 56.0625 -2.863281 56.015625 -3.917969 55.945312 -5.15625 C 55.878906 -6.445312 55.824219 -7.652344 55.789062 -8.769531 C 55.753906 -9.898438 55.738281 -10.757812 55.738281 -11.339844 Z M 55.738281 -16.960938 "/></g></g></g></g><g fill="#000000" fill-opacity="1"><g transform="translate(2.251639, 81.856098)"><g><path d="M 59.5625 -16.953125 C 59.5625 -16.066406 59.5625 -15.097656 59.5625 -14.046875 C 59.5625 -12.992188 59.5625 -12.09375 59.5625 -11.34375 C 59.5625 -10.800781 59.578125 -9.984375 59.609375 -8.890625 C 59.648438 -7.796875 59.703125 -6.617188 59.765625 -5.359375 C 59.835938 -4.097656 59.890625 -3.023438 59.921875 -2.140625 C 59.953125 -1.253906 59.96875 -0.8125 59.96875 -0.8125 C 59.96875 -0.269531 59.695312 0 59.15625 0 L 3.875 0 C 2.925781 0 2.484375 -0.476562 2.546875 -1.4375 C 2.753906 -6.539062 2.875 -11.660156 2.90625 -16.796875 C 2.945312 -21.941406 3 -27.101562 3.0625 -32.28125 C 3.132812 -37.320312 3.320312 -42.394531 3.625 -47.5 C 3.9375 -52.613281 3.71875 -57.691406 2.96875 -62.734375 C 2.894531 -63.140625 2.992188 -63.492188 3.265625 -63.796875 C 3.535156 -64.109375 3.878906 -64.265625 4.296875 -64.265625 L 58.75 -64.265625 C 59.15625 -64.265625 59.425781 -64.0625 59.5625 -63.65625 C 59.5625 -63.582031 59.546875 -63.273438 59.515625 -62.734375 C 59.484375 -62.191406 59.429688 -61.644531 59.359375 -61.09375 C 59.359375 -60.757812 59.320312 -59.976562 59.25 -58.75 C 59.1875 -57.519531 59.140625 -56.238281 59.109375 -54.90625 C 59.078125 -53.582031 59.0625 -52.582031 59.0625 -51.90625 C 59.0625 -51.21875 59.09375 -50.378906 59.15625 -49.390625 C 59.226562 -48.410156 59.3125 -47.523438 59.40625 -46.734375 C 59.507812 -45.953125 59.5625 -45.5625 59.5625 -45.5625 C 59.5625 -45.019531 59.253906 -44.75 58.640625 -44.75 C 58.640625 -44.75 57.972656 -44.765625 56.640625 -44.796875 C 55.316406 -44.835938 53.632812 -44.859375 51.59375 -44.859375 C 49.550781 -44.859375 47.390625 -44.859375 45.109375 -44.859375 C 42.828125 -44.859375 40.710938 -44.820312 38.765625 -44.75 C 36.828125 -44.6875 35.316406 -44.582031 34.234375 -44.4375 C 33.203125 -44.300781 32.160156 -43.992188 31.109375 -43.515625 C 30.054688 -43.046875 29.460938 -42.195312 29.328125 -40.96875 C 29.253906 -40.21875 29.488281 -39.585938 30.03125 -39.078125 C 30.582031 -38.566406 31.164062 -38.175781 31.78125 -37.90625 C 32.113281 -37.832031 33.179688 -37.757812 34.984375 -37.6875 C 36.796875 -37.625 38.960938 -37.59375 41.484375 -37.59375 C 44.003906 -37.59375 46.539062 -37.609375 49.09375 -37.640625 C 51.644531 -37.679688 53.804688 -37.703125 55.578125 -37.703125 C 57.347656 -37.703125 58.367188 -37.703125 58.640625 -37.703125 C 59.253906 -37.703125 59.5625 -37.429688 59.5625 -36.890625 L 59.5625 -28.40625 C 59.5625 -27.65625 59.5625 -27.003906 59.5625 -26.453125 C 59.5625 -25.910156 59.5625 -25.332031 59.5625 -24.71875 C 59.5625 -24.175781 59.253906 -23.90625 58.640625 -23.90625 C 57.484375 -23.90625 55.863281 -23.921875 53.78125 -23.953125 C 51.707031 -23.992188 49.5625 -24.046875 47.34375 -24.109375 C 45.132812 -24.179688 43.144531 -24.234375 41.375 -24.265625 C 39.601562 -24.296875 38.410156 -24.3125 37.796875 -24.3125 C 37.117188 -24.25 36.285156 -24.21875 35.296875 -24.21875 C 34.304688 -24.21875 33.367188 -24.078125 32.484375 -23.796875 C 31.597656 -23.523438 30.953125 -22.984375 30.546875 -22.171875 C 29.867188 -20.878906 29.972656 -19.804688 30.859375 -18.953125 C 31.742188 -18.097656 32.726562 -17.535156 33.8125 -17.265625 C 34.5 -17.128906 35.894531 -17.0625 38 -17.0625 C 40.113281 -17.0625 42.515625 -17.113281 45.203125 -17.21875 C 47.898438 -17.320312 50.488281 -17.421875 52.96875 -17.515625 C 55.457031 -17.617188 57.347656 -17.707031 58.640625 -17.78125 C 59.253906 -17.78125 59.5625 -17.503906 59.5625 -16.953125 Z M 59.5625 -16.953125 "/></g></g></g></g></g><g transform="matrix(1, 0, 0, 1, 181, 30)"><g clip-path="url(#21af531da1)"><g clip-path="url(#79f50a2470)"><g fill="#ffffff" fill-opacity="1"><g transform="translate(1.973845, 81.456721)"><g><path d="M 3.050781 -67.804688 L 31.230469 -67.804688 C 32.722656 -67.804688 33.941406 -67.289062 34.882812 -66.261719 C 35.738281 -65.328125 36.164062 -64.164062 36.164062 -62.769531 L 36.164062 -62.570312 L 36.144531 -62.375 C 35.953125 -60.527344 35.84375 -57.933594 35.808594 -54.59375 C 35.773438 -51.144531 35.757812 -47.410156 35.757812 -43.386719 C 35.757812 -39.375 35.792969 -35.464844 35.859375 -31.65625 L 36.011719 -21.523438 C 36.046875 -18.65625 36.09375 -16.679688 36.160156 -15.585938 L 36.164062 -15.472656 L 36.164062 -15.359375 C 36.164062 -13.0625 36.230469 -10.777344 36.363281 -8.511719 C 36.496094 -6.207031 36.664062 -3.886719 36.863281 -1.546875 C 36.992188 -0.0234375 36.585938 1.25 35.644531 2.273438 C 34.703125 3.300781 33.46875 3.816406 31.945312 3.816406 L 3.152344 3.816406 C 2.535156 3.816406 1.953125 3.691406 1.402344 3.441406 C 0.636719 3.09375 0.0351562 2.558594 -0.398438 1.835938 C -0.953125 0.90625 -1.121094 -0.125 -0.890625 -1.257812 L 2.847656 -0.507812 L -0.921875 -1.089844 C -0.8125 -1.8125 -0.722656 -3.285156 -0.660156 -5.5 C -0.59375 -7.839844 -0.558594 -10.464844 -0.558594 -13.378906 C -0.558594 -16.3125 -0.578125 -19.074219 -0.609375 -21.667969 C -0.644531 -24.234375 -0.691406 -26.171875 -0.757812 -27.480469 L -0.761719 -27.574219 L -0.761719 -27.671875 C -0.761719 -29.28125 -0.78125 -31.402344 -0.8125 -34.03125 L -0.914062 -42.578125 L -1.015625 -51.484375 L -1.117188 -59.054688 C -1.152344 -61.238281 -1.171875 -62.746094 -1.171875 -63.582031 L -1.171875 -65.160156 L 1.472656 -67.804688 Z M 3.050781 -60.171875 L 3.050781 -63.988281 L 5.75 -61.289062 L 5.34375 -60.882812 L 2.644531 -63.582031 L 6.460938 -63.582031 C 6.460938 -62.789062 6.476562 -61.3125 6.511719 -59.15625 L 6.613281 -51.570312 L 6.714844 -42.671875 L 6.816406 -34.128906 C 6.851562 -31.46875 6.867188 -29.316406 6.867188 -27.671875 L 3.050781 -27.671875 L 6.863281 -27.859375 C 6.933594 -26.457031 6.984375 -24.425781 7.019531 -21.769531 C 7.054688 -19.140625 7.070312 -16.34375 7.070312 -13.378906 C 7.070312 -10.390625 7.035156 -7.691406 6.96875 -5.28125 C 6.894531 -2.75 6.777344 -0.964844 6.621094 0.0703125 L 6.605469 0.15625 L 6.589844 0.238281 C 6.75 -0.554688 6.601562 -1.332031 6.144531 -2.089844 C 5.761719 -2.726562 5.234375 -3.199219 4.5625 -3.503906 C 4.105469 -3.710938 3.636719 -3.816406 3.152344 -3.816406 L 31.945312 -3.816406 C 31.722656 -3.816406 31.488281 -3.773438 31.234375 -3.683594 C 30.769531 -3.527344 30.367188 -3.257812 30.019531 -2.882812 C 29.679688 -2.507812 29.449219 -2.085938 29.328125 -1.613281 C 29.265625 -1.355469 29.242188 -1.117188 29.261719 -0.894531 C 29.054688 -3.304688 28.882812 -5.695312 28.746094 -8.070312 C 28.605469 -10.484375 28.535156 -12.914062 28.535156 -15.359375 L 32.351562 -15.359375 L 28.542969 -15.136719 C 28.46875 -16.351562 28.417969 -18.441406 28.382812 -21.40625 L 28.230469 -31.519531 C 28.164062 -35.375 28.128906 -39.332031 28.128906 -43.386719 C 28.128906 -47.4375 28.144531 -51.195312 28.179688 -54.667969 C 28.214844 -58.246094 28.339844 -61.074219 28.554688 -63.160156 L 32.351562 -62.769531 L 28.535156 -62.769531 C 28.535156 -62.183594 28.777344 -61.632812 29.257812 -61.105469 C 29.828125 -60.484375 30.484375 -60.171875 31.230469 -60.171875 Z M 3.050781 -60.171875 "/></g></g></g></g><g fill="#000000" fill-opacity="1"><g transform="translate(1.973845, 81.456721)"><g><path d="M 3.046875 -63.984375 L 31.234375 -63.984375 C 31.972656 -63.984375 32.34375 -63.578125 32.34375 -62.765625 C 32.144531 -60.796875 32.023438 -58.082031 31.984375 -54.625 C 31.953125 -51.164062 31.9375 -47.421875 31.9375 -43.390625 C 31.9375 -39.359375 31.96875 -35.425781 32.03125 -31.59375 C 32.101562 -27.757812 32.15625 -24.382812 32.1875 -21.46875 C 32.226562 -18.550781 32.28125 -16.515625 32.34375 -15.359375 C 32.34375 -12.984375 32.410156 -10.625 32.546875 -8.28125 C 32.691406 -5.945312 32.863281 -3.59375 33.0625 -1.21875 C 33.132812 -0.40625 32.757812 0 31.9375 0 L 3.15625 0 C 2.882812 0 2.78125 -0.171875 2.84375 -0.515625 C 2.976562 -1.390625 3.078125 -3.015625 3.140625 -5.390625 C 3.210938 -7.765625 3.25 -10.425781 3.25 -13.375 C 3.25 -16.320312 3.234375 -19.101562 3.203125 -21.71875 C 3.171875 -24.332031 3.117188 -26.316406 3.046875 -27.671875 C 3.046875 -29.296875 3.03125 -31.429688 3 -34.078125 C 2.96875 -36.722656 2.929688 -39.570312 2.890625 -42.625 C 2.859375 -45.675781 2.828125 -48.644531 2.796875 -51.53125 C 2.765625 -54.414062 2.726562 -56.941406 2.6875 -59.109375 C 2.65625 -61.273438 2.640625 -62.765625 2.640625 -63.578125 C 2.710938 -63.648438 2.847656 -63.785156 3.046875 -63.984375 Z M 3.046875 -63.984375 "/></g></g></g></g></g><g transform="matrix(1, 0, 0, 1, 208, 30)"><g clip-path="url(#90c64e6fb2)"><g clip-path="url(#17b2d61804)"><g fill="#ffffff" fill-opacity="1"><g transform="translate(2.71041, 81.456721)"><g><path d="M 34.792969 -67.804688 L 58.902344 -67.804688 C 60.292969 -67.804688 61.40625 -67.285156 62.238281 -66.246094 C 63.046875 -65.234375 63.316406 -64.0625 63.050781 -62.730469 L 59.308594 -63.480469 L 63.09375 -63.007812 C 62.820312 -60.824219 62.445312 -57.964844 61.972656 -54.425781 L 60.445312 -43.035156 L 58.867188 -31.136719 C 58.359375 -27.261719 57.898438 -23.890625 57.492188 -21.027344 C 57.085938 -18.199219 56.816406 -16.257812 56.683594 -15.191406 L 56.675781 -15.117188 L 56.664062 -15.039062 C 56.339844 -13.09375 56.078125 -11.097656 55.882812 -9.046875 L 55.324219 -3.339844 C 55.164062 -1.796875 55.085938 -0.820312 55.085938 -0.40625 L 55.085938 0.0625 L 54.972656 0.519531 C 54.769531 1.335938 54.382812 2.03125 53.816406 2.597656 C 53.003906 3.410156 52.019531 3.816406 50.863281 3.816406 L 10.988281 3.816406 C 10.003906 3.816406 9.140625 3.535156 8.394531 2.976562 C 7.828125 2.554688 7.40625 2.019531 7.117188 1.378906 C 6.882812 0.847656 6.765625 0.285156 6.765625 -0.304688 L 10.578125 -0.304688 L 6.859375 0.542969 C 5.945312 -3.476562 5.273438 -7.582031 4.851562 -11.773438 C 4.449219 -15.765625 3.980469 -19.742188 3.441406 -23.699219 L 3.4375 -23.746094 L 3.429688 -23.789062 C 3.367188 -24.367188 3.234375 -25.363281 3.039062 -26.789062 L 2.375 -31.515625 C 2.140625 -33.1875 1.910156 -34.757812 1.675781 -36.226562 C 1.425781 -37.792969 1.265625 -38.949219 1.1875 -39.703125 L 4.984375 -40.082031 L 1.25 -39.296875 C 0.957031 -40.699219 0.664062 -42.628906 0.382812 -45.085938 C 0.109375 -47.4375 -0.164062 -49.910156 -0.4375 -52.5 C -0.703125 -55.042969 -0.972656 -57.3125 -1.238281 -59.3125 C -1.496094 -61.238281 -1.679688 -62.453125 -1.792969 -62.957031 L -1.882812 -63.367188 L -1.882812 -63.785156 C -1.882812 -64.90625 -1.492188 -65.855469 -0.714844 -66.636719 C 0.0664062 -67.414062 1.015625 -67.804688 2.136719 -67.804688 L 26.144531 -67.804688 C 27.332031 -67.804688 28.335938 -67.398438 29.148438 -66.585938 C 29.960938 -65.773438 30.367188 -64.769531 30.367188 -63.582031 L 26.550781 -63.582031 L 30.363281 -63.777344 C 30.492188 -61.257812 30.714844 -58.941406 31.035156 -56.828125 C 31.375 -54.578125 31.71875 -52.242188 32.058594 -49.820312 C 32.410156 -47.320312 32.691406 -44.496094 32.902344 -41.351562 C 32.871094 -41.742188 32.710938 -42.121094 32.425781 -42.488281 C 31.984375 -43.050781 31.429688 -43.386719 30.757812 -43.496094 C 29.871094 -43.632812 29.074219 -43.378906 28.367188 -42.734375 C 27.910156 -42.320312 27.648438 -41.882812 27.570312 -41.421875 L 31.332031 -40.792969 L 27.53125 -41.132812 C 27.816406 -44.304688 28.1875 -47.136719 28.648438 -49.628906 C 29.085938 -51.976562 29.488281 -54.273438 29.855469 -56.519531 C 30.207031 -58.644531 30.445312 -61.0625 30.574219 -63.761719 L 30.59375 -64.140625 L 30.683594 -64.507812 C 30.886719 -65.324219 31.273438 -66.019531 31.839844 -66.585938 C 32.652344 -67.398438 33.636719 -67.804688 34.792969 -67.804688 Z M 34.792969 -60.171875 C 35.742188 -60.171875 36.558594 -60.511719 37.234375 -61.1875 C 37.664062 -61.621094 37.949219 -62.109375 38.085938 -62.65625 L 34.386719 -63.582031 L 38.195312 -63.398438 C 38.054688 -60.40625 37.785156 -57.699219 37.386719 -55.28125 C 37.007812 -52.984375 36.597656 -50.636719 36.152344 -48.234375 C 35.734375 -45.980469 35.394531 -43.386719 35.132812 -40.457031 L 35.121094 -40.3125 L 35.097656 -40.167969 C 34.882812 -38.890625 34.355469 -37.871094 33.511719 -37.097656 C 32.414062 -36.097656 31.097656 -35.714844 29.566406 -35.957031 C 28.253906 -36.164062 27.195312 -36.78125 26.402344 -37.804688 C 25.757812 -38.628906 25.386719 -39.644531 25.289062 -40.84375 C 25.089844 -43.804688 24.828125 -46.441406 24.503906 -48.757812 C 24.164062 -51.152344 23.828125 -53.460938 23.492188 -55.683594 C 23.132812 -58.046875 22.882812 -60.613281 22.742188 -63.386719 L 22.738281 -63.484375 L 22.738281 -63.582031 C 22.738281 -62.664062 23.074219 -61.867188 23.753906 -61.1875 C 24.429688 -60.511719 25.226562 -60.171875 26.144531 -60.171875 L 2.136719 -60.171875 C 3.121094 -60.171875 3.96875 -60.527344 4.679688 -61.238281 C 5.390625 -61.949219 5.746094 -62.800781 5.746094 -63.785156 L 1.933594 -63.785156 L 5.65625 -64.613281 C 5.816406 -63.894531 6.039062 -62.464844 6.324219 -60.320312 C 6.601562 -58.253906 6.875 -55.910156 7.152344 -53.300781 C 7.421875 -50.734375 7.691406 -48.289062 7.960938 -45.964844 C 8.21875 -43.742188 8.472656 -42.042969 8.71875 -40.867188 L 8.761719 -40.667969 L 8.78125 -40.460938 C 8.839844 -39.855469 8.984375 -38.84375 9.210938 -37.425781 C 9.453125 -35.910156 9.691406 -34.292969 9.933594 -32.574219 L 10.59375 -27.84375 C 10.804688 -26.347656 10.941406 -25.277344 11.015625 -24.632812 L 7.222656 -24.210938 L 11.003906 -24.722656 C 11.550781 -20.679688 12.03125 -16.617188 12.441406 -12.539062 C 12.835938 -8.660156 13.453125 -4.867188 14.300781 -1.152344 L 14.394531 -0.734375 L 14.394531 -0.304688 C 14.394531 -0.792969 14.292969 -1.265625 14.089844 -1.722656 C 13.839844 -2.289062 13.464844 -2.757812 12.972656 -3.128906 C 12.359375 -3.585938 11.699219 -3.816406 10.988281 -3.816406 L 50.863281 -3.816406 C 49.914062 -3.816406 49.097656 -3.476562 48.421875 -2.800781 C 47.992188 -2.367188 47.707031 -1.878906 47.570312 -1.332031 L 51.273438 -0.40625 L 47.457031 -0.40625 C 47.457031 -1.078125 47.546875 -2.304688 47.730469 -4.085938 L 48.289062 -9.773438 C 48.5 -11.996094 48.78125 -14.171875 49.136719 -16.292969 L 52.898438 -15.667969 L 49.113281 -16.140625 C 49.253906 -17.246094 49.527344 -19.234375 49.9375 -22.105469 C 50.34375 -24.941406 50.796875 -28.285156 51.304688 -32.140625 L 52.882812 -44.046875 L 54.410156 -55.445312 C 54.882812 -58.957031 55.253906 -61.792969 55.523438 -63.953125 L 55.539062 -64.089844 L 55.566406 -64.226562 C 55.5 -63.898438 55.492188 -63.554688 55.539062 -63.199219 C 55.625 -62.5625 55.871094 -61.988281 56.277344 -61.476562 C 56.695312 -60.957031 57.214844 -60.585938 57.835938 -60.363281 C 58.191406 -60.238281 58.546875 -60.171875 58.902344 -60.171875 Z M 34.792969 -60.171875 "/></g></g></g></g><g fill="#000000" fill-opacity="1"><g transform="translate(2.71041, 81.456721)"><g><path d="M 34.796875 -63.984375 L 58.90625 -63.984375 C 59.238281 -63.984375 59.375 -63.816406 59.3125 -63.484375 C 59.039062 -61.316406 58.664062 -58.46875 58.1875 -54.9375 C 57.71875 -51.40625 57.210938 -47.601562 56.671875 -43.53125 C 56.128906 -39.46875 55.601562 -35.503906 55.09375 -31.640625 C 54.582031 -27.773438 54.125 -24.414062 53.71875 -21.5625 C 53.3125 -18.71875 53.039062 -16.753906 52.90625 -15.671875 C 52.5625 -13.628906 52.285156 -11.539062 52.078125 -9.40625 C 51.878906 -7.269531 51.695312 -5.367188 51.53125 -3.703125 C 51.363281 -2.046875 51.28125 -0.945312 51.28125 -0.40625 C 51.207031 -0.132812 51.070312 0 50.875 0 L 10.984375 0 C 10.710938 0 10.578125 -0.101562 10.578125 -0.3125 C 9.703125 -4.175781 9.054688 -8.125 8.640625 -12.15625 C 8.234375 -16.1875 7.757812 -20.207031 7.21875 -24.21875 C 7.15625 -24.820312 7.019531 -25.851562 6.8125 -27.3125 C 6.613281 -28.769531 6.394531 -30.347656 6.15625 -32.046875 C 5.914062 -33.742188 5.675781 -35.335938 5.4375 -36.828125 C 5.207031 -38.316406 5.054688 -39.398438 4.984375 -40.078125 C 4.710938 -41.367188 4.441406 -43.179688 4.171875 -45.515625 C 3.898438 -47.859375 3.628906 -50.316406 3.359375 -52.890625 C 3.085938 -55.472656 2.816406 -57.78125 2.546875 -59.8125 C 2.273438 -61.851562 2.070312 -63.175781 1.9375 -63.78125 C 1.9375 -63.914062 2.003906 -63.984375 2.140625 -63.984375 L 26.140625 -63.984375 C 26.410156 -63.984375 26.546875 -63.847656 26.546875 -63.578125 C 26.679688 -60.929688 26.921875 -58.488281 27.265625 -56.25 C 27.609375 -54.019531 27.945312 -51.695312 28.28125 -49.28125 C 28.625 -46.875 28.894531 -44.144531 29.09375 -41.09375 C 29.164062 -40.28125 29.519531 -39.820312 30.15625 -39.71875 C 30.800781 -39.625 31.191406 -39.984375 31.328125 -40.796875 C 31.597656 -43.847656 31.953125 -46.5625 32.390625 -48.9375 C 32.835938 -51.3125 33.25 -53.632812 33.625 -55.90625 C 34 -58.175781 34.253906 -60.734375 34.390625 -63.578125 C 34.453125 -63.847656 34.585938 -63.984375 34.796875 -63.984375 Z M 34.796875 -63.984375 "/></g></g></g></g></g><g transform="matrix(1, 0, 0, 1, 124, 30)"><g clip-path="url(#fb60b6de13)"><g clip-path="url(#38fa563207)"><g fill="#ffffff" fill-opacity="1"><g transform="translate(1.956658, 81.456721)"><g><path d="M 57.632812 -21.136719 C 58.328125 -19.746094 59.011719 -18.03125 59.679688 -15.988281 C 60.304688 -14.070312 60.898438 -12.121094 61.457031 -10.136719 C 62.007812 -8.175781 62.472656 -6.449219 62.851562 -4.964844 C 63.257812 -3.371094 63.507812 -2.269531 63.59375 -1.660156 L 59.816406 -1.117188 L 63.570312 -1.800781 C 63.800781 -0.542969 63.648438 0.570312 63.117188 1.546875 C 62.683594 2.339844 62.0625 2.9375 61.257812 3.34375 C 60.625 3.65625 59.941406 3.816406 59.207031 3.816406 L 36.519531 3.816406 C 35.195312 3.816406 34.105469 3.308594 33.261719 2.289062 C 32.734375 1.660156 32.398438 0.902344 32.25 0.015625 L 36.011719 -0.609375 L 32.34375 0.4375 C 32.226562 0.0234375 31.941406 -0.847656 31.488281 -2.175781 C 31.027344 -3.515625 30.488281 -4.992188 29.863281 -6.605469 C 29.234375 -8.21875 28.644531 -9.664062 28.089844 -10.9375 C 27.660156 -11.925781 27.390625 -12.484375 27.28125 -12.613281 L 30.214844 -15.054688 L 27.515625 -12.359375 C 27.890625 -11.984375 28.351562 -11.742188 28.894531 -11.632812 C 29.34375 -11.542969 29.761719 -11.5625 30.148438 -11.691406 C 30.597656 -11.839844 30.988281 -12.117188 31.308594 -12.515625 C 31.621094 -12.902344 31.808594 -13.320312 31.863281 -13.769531 L 28.078125 -14.242188 L 31.886719 -13.996094 C 31.753906 -11.957031 31.671875 -9.832031 31.636719 -7.625 C 31.605469 -5.410156 31.621094 -3.246094 31.6875 -1.136719 L 27.875 -1.015625 L 31.671875 -1.398438 C 31.789062 -0.21875 31.578125 0.816406 31.042969 1.707031 C 30.613281 2.429688 30.023438 2.976562 29.273438 3.347656 C 28.652344 3.660156 27.984375 3.816406 27.265625 3.816406 L 3.457031 3.816406 C 2.757812 3.816406 2.097656 3.660156 1.484375 3.355469 C 0.804688 3.015625 0.253906 2.527344 -0.171875 1.886719 C -0.703125 1.09375 -0.964844 0.160156 -0.964844 -0.914062 L -0.964844 -9.5625 C -0.964844 -9.933594 -0.949219 -10.84375 -0.914062 -12.296875 C -0.882812 -13.691406 -0.863281 -15.359375 -0.863281 -17.292969 L -0.863281 -23.195312 C -0.863281 -25.132812 -0.882812 -26.796875 -0.914062 -28.191406 C -0.949219 -29.644531 -0.964844 -30.558594 -0.964844 -30.925781 L -0.964844 -43.539062 L -0.761719 -53.539062 C -0.695312 -56.84375 -0.695312 -60.128906 -0.761719 -63.402344 C -0.761719 -64.328125 -0.554688 -65.136719 -0.144531 -65.824219 C 0.234375 -66.449219 0.738281 -66.941406 1.371094 -67.292969 C 1.984375 -67.632812 2.648438 -67.804688 3.355469 -67.804688 L 46.492188 -67.804688 C 48.230469 -67.804688 49.953125 -67.386719 51.667969 -66.554688 C 53.117188 -65.851562 54.5 -64.964844 55.8125 -63.898438 L 55.875 -63.847656 L 55.933594 -63.796875 C 57.378906 -62.523438 58.589844 -61.074219 59.570312 -59.453125 C 60.40625 -58.078125 61.015625 -57.003906 61.398438 -56.234375 L 61.445312 -56.140625 L 61.488281 -56.042969 C 62.527344 -53.640625 63.167969 -51.191406 63.410156 -48.6875 C 63.625 -46.464844 63.734375 -43.933594 63.734375 -41.097656 C 63.734375 -39.085938 63.550781 -36.816406 63.1875 -34.296875 C 62.796875 -31.609375 62.257812 -29.492188 61.574219 -27.953125 L 58.089844 -29.5 L 61.609375 -28.035156 C 61.199219 -27.050781 60.640625 -25.96875 59.933594 -24.792969 C 59.308594 -23.746094 58.746094 -22.835938 58.253906 -22.0625 C 57.628906 -21.082031 57.183594 -20.457031 56.921875 -20.191406 L 55.800781 -19.074219 L 54.121094 -19.074219 L 54.121094 -22.890625 L 56.816406 -20.191406 C 56.988281 -20.359375 57.121094 -20.585938 57.21875 -20.863281 C 57.351562 -21.234375 57.382812 -21.601562 57.316406 -21.976562 C 57.355469 -21.761719 57.460938 -21.484375 57.632812 -21.136719 Z M 50.808594 -17.722656 C 50.304688 -18.734375 49.96875 -19.707031 49.804688 -20.648438 C 49.636719 -21.597656 49.710938 -22.519531 50.027344 -23.414062 C 50.316406 -24.21875 50.777344 -24.941406 51.421875 -25.585938 L 52.539062 -26.703125 L 54.222656 -26.703125 L 54.222656 -22.890625 L 51.523438 -25.585938 C 51.394531 -25.457031 51.285156 -25.332031 51.207031 -25.222656 C 51.226562 -25.246094 51.257812 -25.292969 51.300781 -25.363281 C 51.421875 -25.542969 51.59375 -25.808594 51.816406 -26.160156 C 52.273438 -26.875 52.800781 -27.730469 53.390625 -28.71875 C 53.90625 -29.578125 54.296875 -30.328125 54.566406 -30.96875 L 54.582031 -31.011719 L 54.601562 -31.050781 C 55 -31.953125 55.347656 -33.398438 55.636719 -35.390625 C 55.949219 -37.546875 56.105469 -39.453125 56.105469 -41.097656 C 56.105469 -43.6875 56.007812 -45.972656 55.816406 -47.953125 C 55.652344 -49.65625 55.207031 -51.34375 54.484375 -53.011719 L 57.988281 -54.527344 L 54.574219 -52.820312 C 54.28125 -53.40625 53.769531 -54.300781 53.042969 -55.503906 C 52.464844 -56.457031 51.746094 -57.316406 50.882812 -58.074219 L 53.410156 -60.9375 L 51.003906 -57.976562 C 50.144531 -58.671875 49.257812 -59.242188 48.332031 -59.691406 C 47.671875 -60.011719 47.058594 -60.171875 46.492188 -60.171875 L 3.355469 -60.171875 C 3.964844 -60.171875 4.539062 -60.324219 5.078125 -60.621094 C 5.632812 -60.929688 6.074219 -61.355469 6.398438 -61.898438 C 6.710938 -62.417969 6.867188 -62.972656 6.867188 -63.558594 C 6.933594 -60.183594 6.933594 -56.789062 6.867188 -53.382812 L 6.664062 -43.539062 L 6.664062 -30.925781 C 6.664062 -30.617188 6.679688 -29.765625 6.714844 -28.371094 C 6.746094 -26.917969 6.765625 -25.191406 6.765625 -23.195312 L 6.765625 -17.292969 C 6.765625 -15.296875 6.746094 -13.570312 6.714844 -12.117188 C 6.679688 -10.722656 6.664062 -9.871094 6.664062 -9.5625 L 6.664062 -0.914062 C 6.664062 -1.378906 6.5 -1.855469 6.175781 -2.34375 C 5.851562 -2.832031 5.425781 -3.207031 4.898438 -3.46875 C 4.4375 -3.699219 3.957031 -3.816406 3.457031 -3.816406 L 27.265625 -3.816406 C 26.78125 -3.816406 26.316406 -3.703125 25.863281 -3.476562 C 25.285156 -3.1875 24.832031 -2.765625 24.5 -2.21875 C 24.167969 -1.664062 24.027344 -1.136719 24.078125 -0.636719 L 24.066406 -0.769531 L 24.0625 -0.898438 C 23.992188 -3.128906 23.972656 -5.40625 24.007812 -7.738281 C 24.042969 -10.074219 24.128906 -12.324219 24.269531 -14.488281 L 24.277344 -14.601562 L 24.292969 -14.714844 C 24.414062 -15.707031 24.777344 -16.574219 25.378906 -17.316406 C 25.992188 -18.074219 26.777344 -18.609375 27.734375 -18.929688 C 28.632812 -19.226562 29.515625 -19.289062 30.390625 -19.113281 C 31.355469 -18.921875 32.199219 -18.46875 32.910156 -17.753906 L 33.035156 -17.632812 L 33.144531 -17.5 C 33.714844 -16.8125 34.363281 -15.640625 35.085938 -13.988281 C 35.683594 -12.617188 36.3125 -11.074219 36.976562 -9.363281 C 37.636719 -7.65625 38.214844 -6.082031 38.707031 -4.640625 C 39.203125 -3.1875 39.527344 -2.195312 39.679688 -1.660156 L 39.742188 -1.449219 L 39.777344 -1.238281 C 39.695312 -1.714844 39.476562 -2.167969 39.121094 -2.59375 C 38.445312 -3.410156 37.578125 -3.816406 36.519531 -3.816406 L 59.207031 -3.816406 C 58.742188 -3.816406 58.289062 -3.703125 57.84375 -3.480469 C 57.222656 -3.171875 56.75 -2.714844 56.417969 -2.105469 C 56.089844 -1.503906 55.972656 -0.949219 56.0625 -0.4375 L 56.039062 -0.578125 C 55.992188 -0.917969 55.800781 -1.75 55.460938 -3.074219 C 55.09375 -4.503906 54.644531 -6.167969 54.109375 -8.074219 C 53.582031 -9.953125 53.019531 -11.800781 52.425781 -13.613281 C 51.875 -15.300781 51.335938 -16.671875 50.808594 -17.722656 Z M 28.640625 -37.109375 C 28.703125 -38.4375 28.71875 -39.644531 28.6875 -40.734375 C 28.660156 -41.800781 28.582031 -42.816406 28.464844 -43.78125 C 28.386719 -44.460938 28.292969 -44.96875 28.183594 -45.296875 C 28.171875 -45.335938 28.160156 -45.367188 28.148438 -45.390625 C 28.152344 -45.386719 28.160156 -45.371094 28.167969 -45.351562 C 28.257812 -45.203125 28.386719 -45.050781 28.554688 -44.902344 C 28.570312 -44.886719 28.621094 -44.863281 28.699219 -44.828125 C 28.882812 -44.75 29.082031 -44.710938 29.296875 -44.710938 C 29.691406 -44.710938 30.050781 -44.820312 30.367188 -45.042969 C 30.589844 -45.199219 30.792969 -45.414062 30.972656 -45.683594 C 31.316406 -46.199219 31.484375 -46.773438 31.484375 -47.40625 L 31.484375 -44.050781 C 31.484375 -42.941406 31.46875 -41.476562 31.433594 -39.652344 C 31.402344 -37.957031 31.417969 -36.578125 31.480469 -35.523438 L 31.484375 -35.414062 L 31.484375 -35.300781 C 31.484375 -35.105469 31.523438 -34.839844 31.597656 -34.5 C 31.453125 -35.148438 31.105469 -35.667969 30.550781 -36.066406 C 30.21875 -36.300781 29.90625 -36.433594 29.613281 -36.457031 L 29.296875 -32.65625 L 29.296875 -36.46875 C 29.050781 -36.46875 28.828125 -36.421875 28.632812 -36.328125 C 28.585938 -36.304688 28.550781 -36.285156 28.527344 -36.265625 C 28.539062 -36.273438 28.558594 -36.292969 28.585938 -36.320312 C 28.519531 -36.253906 28.46875 -36.191406 28.433594 -36.136719 L 28.433594 -36.132812 C 28.441406 -36.152344 28.449219 -36.175781 28.460938 -36.203125 C 28.546875 -36.449219 28.613281 -36.800781 28.652344 -37.257812 L 32.453125 -36.929688 Z M 36.261719 -36.746094 L 36.253906 -36.597656 C 36.035156 -34.113281 35.277344 -32.222656 33.980469 -30.925781 C 32.589844 -29.535156 31.03125 -28.839844 29.296875 -28.839844 L 29.140625 -28.839844 L 28.980469 -28.855469 C 27.878906 -28.945312 26.921875 -29.28125 26.113281 -29.855469 C 25.085938 -30.59375 24.429688 -31.589844 24.148438 -32.84375 C 23.953125 -33.726562 23.855469 -34.546875 23.855469 -35.300781 L 27.671875 -35.300781 L 23.863281 -35.078125 C 23.789062 -36.328125 23.769531 -37.902344 23.804688 -39.796875 C 23.839844 -41.570312 23.855469 -42.988281 23.855469 -44.050781 L 23.855469 -47.40625 C 23.855469 -48.3125 24.113281 -49.148438 24.625 -49.917969 C 24.972656 -50.441406 25.429688 -50.902344 25.992188 -51.292969 C 26.988281 -51.992188 28.089844 -52.339844 29.296875 -52.339844 C 30.871094 -52.339844 32.304688 -51.769531 33.601562 -50.625 C 34.914062 -49.464844 35.726562 -47.5 36.035156 -44.726562 C 36.183594 -43.519531 36.277344 -42.261719 36.316406 -40.953125 C 36.351562 -39.671875 36.335938 -38.269531 36.261719 -36.746094 Z M 36.261719 -36.746094 "/></g></g></g></g><g fill="#000000" fill-opacity="1"><g transform="translate(1.956658, 81.456721)"><g><path d="M 54.21875 -19.4375 C 54.832031 -18.207031 55.441406 -16.660156 56.046875 -14.796875 C 56.660156 -12.929688 57.238281 -11.03125 57.78125 -9.09375 C 58.320312 -7.164062 58.78125 -5.472656 59.15625 -4.015625 C 59.53125 -2.554688 59.75 -1.59375 59.8125 -1.125 C 59.945312 -0.375 59.742188 0 59.203125 0 L 36.515625 0 C 36.242188 0 36.078125 -0.203125 36.015625 -0.609375 C 35.878906 -1.085938 35.570312 -2.019531 35.09375 -3.40625 C 34.625 -4.800781 34.066406 -6.328125 33.421875 -7.984375 C 32.773438 -9.648438 32.160156 -11.144531 31.578125 -12.46875 C 31.003906 -13.789062 30.550781 -14.65625 30.21875 -15.0625 C 29.875 -15.394531 29.445312 -15.476562 28.9375 -15.3125 C 28.4375 -15.144531 28.148438 -14.789062 28.078125 -14.25 C 27.941406 -12.144531 27.859375 -9.953125 27.828125 -7.671875 C 27.796875 -5.398438 27.8125 -3.179688 27.875 -1.015625 C 27.945312 -0.335938 27.742188 0 27.265625 0 L 3.453125 0 C 3.046875 0 2.84375 -0.304688 2.84375 -0.921875 L 2.84375 -9.5625 C 2.84375 -9.90625 2.859375 -10.785156 2.890625 -12.203125 C 2.929688 -13.628906 2.953125 -15.328125 2.953125 -17.296875 C 2.953125 -19.265625 2.953125 -21.226562 2.953125 -23.1875 C 2.953125 -25.15625 2.929688 -26.851562 2.890625 -28.28125 C 2.859375 -29.707031 2.84375 -30.585938 2.84375 -30.921875 L 2.84375 -43.546875 C 2.914062 -46.796875 2.984375 -50.097656 3.046875 -53.453125 C 3.117188 -56.816406 3.117188 -60.160156 3.046875 -63.484375 C 3.046875 -63.816406 3.148438 -63.984375 3.359375 -63.984375 L 46.5 -63.984375 C 47.644531 -63.984375 48.8125 -63.695312 50 -63.125 C 51.1875 -62.550781 52.320312 -61.820312 53.40625 -60.9375 C 54.5625 -59.914062 55.53125 -58.757812 56.3125 -57.46875 C 57.09375 -56.1875 57.648438 -55.207031 57.984375 -54.53125 C 58.867188 -52.5 59.410156 -50.429688 59.609375 -48.328125 C 59.816406 -46.222656 59.921875 -43.8125 59.921875 -41.09375 C 59.921875 -39.269531 59.75 -37.1875 59.40625 -34.84375 C 59.070312 -32.5 58.632812 -30.71875 58.09375 -29.5 C 57.75 -28.6875 57.269531 -27.769531 56.65625 -26.75 C 56.050781 -25.738281 55.507812 -24.859375 55.03125 -24.109375 C 54.5625 -23.359375 54.289062 -22.953125 54.21875 -22.890625 C 54.21875 -22.890625 54.1875 -22.890625 54.125 -22.890625 C 53.644531 -22.410156 53.457031 -21.882812 53.5625 -21.3125 C 53.664062 -20.738281 53.882812 -20.113281 54.21875 -19.4375 Z M 32.453125 -36.921875 C 32.523438 -38.347656 32.539062 -39.65625 32.5 -40.84375 C 32.46875 -42.03125 32.382812 -43.164062 32.25 -44.25 C 32.039062 -46.082031 31.648438 -47.253906 31.078125 -47.765625 C 30.503906 -48.273438 29.910156 -48.53125 29.296875 -48.53125 C 28.890625 -48.53125 28.515625 -48.410156 28.171875 -48.171875 C 27.835938 -47.929688 27.671875 -47.675781 27.671875 -47.40625 C 27.671875 -47 27.671875 -46.488281 27.671875 -45.875 C 27.671875 -45.269531 27.671875 -44.660156 27.671875 -44.046875 C 27.671875 -42.960938 27.648438 -41.519531 27.609375 -39.71875 C 27.578125 -37.925781 27.597656 -36.453125 27.671875 -35.296875 C 27.671875 -34.828125 27.738281 -34.285156 27.875 -33.671875 C 28.007812 -33.066406 28.484375 -32.726562 29.296875 -32.65625 C 29.972656 -32.65625 30.632812 -32.976562 31.28125 -33.625 C 31.925781 -34.269531 32.316406 -35.367188 32.453125 -36.921875 Z M 32.453125 -36.921875 "/></g></g></g></g></g><g transform="matrix(1, 0, 0, 1, 19, 30)"><g clip-path="url(#b156c6af6e)"><g clip-path="url(#5c7686d779)"><g fill="#ffffff" fill-opacity="1"><g transform="translate(1.872198, 81.456721)"><g><path d="M 63.125 -63.785156 C 63.125 -61.136719 63.191406 -58.46875 63.324219 -55.785156 C 63.464844 -52.910156 63.464844 -50.054688 63.324219 -47.214844 L 63.117188 -43.292969 C 63.058594 -42.101562 63.058594 -40.890625 63.121094 -39.660156 L 63.125 -39.566406 L 63.125 -39.472656 C 63.125 -38.273438 62.777344 -37.242188 62.085938 -36.375 C 61.304688 -35.398438 60.265625 -34.832031 58.96875 -34.667969 C 57.695312 -34.507812 56.238281 -34.449219 54.589844 -34.488281 C 53.195312 -34.519531 51.886719 -34.519531 50.660156 -34.488281 C 50.210938 -34.476562 49.867188 -34.449219 49.632812 -34.40625 L 49.625 -34.410156 C 49.785156 -34.464844 49.957031 -34.550781 50.132812 -34.667969 C 50.203125 -34.714844 50.25 -34.753906 50.28125 -34.78125 C 50.253906 -34.753906 50.210938 -34.710938 50.15625 -34.648438 C 50.28125 -34.789062 50.375 -34.929688 50.433594 -35.0625 C 50.441406 -35.074219 50.445312 -35.082031 50.445312 -35.082031 C 50.4375 -35.058594 50.429688 -35.023438 50.417969 -34.980469 L 46.695312 -35.808594 L 50.480469 -35.335938 C 50.425781 -34.902344 50.367188 -33.828125 50.304688 -32.105469 C 50.238281 -30.324219 50.203125 -28.183594 50.203125 -25.6875 L 50.203125 -3.867188 C 50.203125 -3.097656 50.210938 -2.511719 50.226562 -2.097656 C 50.234375 -1.9375 50.238281 -1.824219 50.246094 -1.75 C 50.230469 -1.90625 50.1875 -2.097656 50.109375 -2.324219 L 50.304688 -1.738281 L 50.304688 -1.117188 C 50.304688 0.160156 49.941406 1.246094 49.214844 2.136719 C 48.300781 3.253906 47.085938 3.816406 45.574219 3.816406 L 17.191406 3.816406 C 15.789062 3.816406 14.632812 3.308594 13.722656 2.296875 C 13.011719 1.507812 12.597656 0.53125 12.480469 -0.636719 L 12.460938 -0.828125 L 12.460938 -1.015625 C 12.460938 -1.917969 12.480469 -3.433594 12.511719 -5.554688 C 12.546875 -7.667969 12.597656 -10.054688 12.667969 -12.710938 L 12.871094 -20.597656 L 13.023438 -27.351562 C 13.050781 -29.054688 13.046875 -30.089844 13 -30.453125 C 12.839844 -31.660156 12.777344 -32.875 12.820312 -34.105469 C 12.816406 -34.019531 12.832031 -33.960938 12.867188 -33.925781 L 15.566406 -36.621094 L 13.03125 -33.773438 C 12.808594 -33.96875 12.589844 -34.101562 12.375 -34.171875 C 11.941406 -34.316406 11.5 -34.410156 11.046875 -34.453125 C 10.527344 -34.507812 9.726562 -34.539062 8.648438 -34.539062 L 3.867188 -34.539062 C 2.429688 -34.539062 1.253906 -35.042969 0.34375 -36.054688 C -0.460938 -36.949219 -0.863281 -38.054688 -0.863281 -39.371094 L -0.863281 -40.742188 C -0.863281 -41.621094 -0.882812 -42.597656 -0.914062 -43.679688 C -0.945312 -44.695312 -0.988281 -45.460938 -1.046875 -45.96875 L -1.054688 -46.042969 L -1.058594 -46.117188 C -1.128906 -47.109375 -1.199219 -48.523438 -1.269531 -50.367188 C -1.339844 -52.210938 -1.375 -54.125 -1.375 -56.105469 L -1.375 -63.378906 C -1.375 -64.082031 -1.21875 -64.738281 -0.914062 -65.351562 C -0.574219 -66.03125 -0.0859375 -66.585938 0.554688 -67.011719 C 1.347656 -67.539062 2.28125 -67.804688 3.355469 -67.804688 L 60.007812 -67.804688 L 60.914062 -67.351562 C 61.550781 -67.03125 62.066406 -66.578125 62.457031 -65.992188 C 62.902344 -65.324219 63.125 -64.589844 63.125 -63.785156 Z M 55.492188 -63.785156 C 55.492188 -63.046875 55.699219 -62.375 56.109375 -61.757812 C 56.464844 -61.222656 56.929688 -60.808594 57.5 -60.523438 L 57.398438 -60.574219 L 59.105469 -63.988281 L 59.105469 -60.171875 L 3.355469 -60.171875 C 3.820312 -60.171875 4.296875 -60.335938 4.785156 -60.660156 C 5.273438 -60.984375 5.648438 -61.410156 5.910156 -61.9375 C 6.140625 -62.398438 6.257812 -62.878906 6.257812 -63.378906 L 6.257812 -56.105469 C 6.257812 -54.21875 6.289062 -52.402344 6.355469 -50.652344 C 6.421875 -48.898438 6.488281 -47.566406 6.550781 -46.660156 L 2.746094 -46.390625 L 6.539062 -46.808594 C 6.617188 -46.097656 6.675781 -45.132812 6.710938 -43.910156 C 6.746094 -42.753906 6.765625 -41.695312 6.765625 -40.742188 L 6.765625 -39.371094 C 6.765625 -40.007812 6.515625 -40.601562 6.015625 -41.160156 C 5.410156 -41.832031 4.691406 -42.167969 3.867188 -42.167969 L 8.648438 -42.167969 C 10.007812 -42.167969 11.039062 -42.128906 11.738281 -42.050781 C 12.777344 -41.957031 13.796875 -41.742188 14.789062 -41.414062 C 15.996094 -41.007812 17.097656 -40.363281 18.097656 -39.472656 L 18.183594 -39.398438 L 18.261719 -39.320312 C 19.789062 -37.792969 20.515625 -35.972656 20.445312 -33.851562 C 20.417969 -33.042969 20.460938 -32.226562 20.570312 -31.398438 C 20.660156 -30.675781 20.6875 -29.269531 20.652344 -27.175781 L 20.496094 -20.398438 L 20.292969 -12.515625 C 20.226562 -9.882812 20.175781 -7.523438 20.140625 -5.433594 C 20.109375 -3.351562 20.09375 -1.878906 20.09375 -1.015625 L 16.277344 -1.015625 L 20.074219 -1.398438 C 20.023438 -1.886719 19.796875 -2.355469 19.390625 -2.804688 C 18.789062 -3.480469 18.054688 -3.816406 17.191406 -3.816406 L 45.574219 -3.816406 C 44.675781 -3.816406 43.917969 -3.441406 43.308594 -2.695312 C 42.886719 -2.179688 42.675781 -1.652344 42.675781 -1.117188 L 46.492188 -1.117188 L 42.871094 0.0859375 C 42.671875 -0.507812 42.574219 -1.824219 42.574219 -3.867188 L 42.574219 -25.6875 C 42.574219 -28.277344 42.609375 -30.511719 42.679688 -32.390625 C 42.75 -34.332031 42.828125 -35.628906 42.910156 -36.28125 L 42.929688 -36.460938 L 42.96875 -36.636719 C 43.25 -37.890625 43.742188 -38.917969 44.453125 -39.71875 C 44.941406 -40.265625 45.425781 -40.699219 45.902344 -41.019531 C 46.917969 -41.695312 48.4375 -42.0625 50.460938 -42.117188 C 51.8125 -42.152344 53.246094 -42.152344 54.769531 -42.117188 C 56.039062 -42.085938 57.125 -42.128906 58.023438 -42.238281 C 57.269531 -42.144531 56.636719 -41.78125 56.125 -41.140625 C 55.703125 -40.617188 55.492188 -40.058594 55.492188 -39.472656 L 59.308594 -39.472656 L 55.5 -39.28125 C 55.425781 -40.765625 55.425781 -42.234375 55.5 -43.6875 L 55.703125 -47.597656 C 55.832031 -50.183594 55.832031 -52.785156 55.703125 -55.40625 C 55.5625 -58.21875 55.492188 -61.007812 55.492188 -63.785156 Z M 55.492188 -63.785156 "/></g></g></g></g><g fill="#000000" fill-opacity="1"><g transform="translate(1.872198, 81.456721)"><g><path d="M 59.3125 -63.78125 C 59.3125 -61.070312 59.378906 -58.34375 59.515625 -55.59375 C 59.648438 -52.851562 59.648438 -50.125 59.515625 -47.40625 C 59.441406 -46.113281 59.367188 -44.804688 59.296875 -43.484375 C 59.234375 -42.160156 59.238281 -40.820312 59.3125 -39.46875 C 59.3125 -38.863281 59.039062 -38.523438 58.5 -38.453125 C 57.414062 -38.316406 56.144531 -38.265625 54.6875 -38.296875 C 53.226562 -38.335938 51.851562 -38.335938 50.5625 -38.296875 C 49.269531 -38.265625 48.421875 -38.113281 48.015625 -37.84375 C 47.816406 -37.707031 47.582031 -37.484375 47.3125 -37.171875 C 47.039062 -36.867188 46.835938 -36.414062 46.703125 -35.8125 C 46.628906 -35.269531 46.554688 -34.082031 46.484375 -32.25 C 46.421875 -30.414062 46.390625 -28.226562 46.390625 -25.6875 C 46.390625 -23.144531 46.390625 -20.5 46.390625 -17.75 C 46.390625 -15 46.390625 -12.40625 46.390625 -9.96875 C 46.390625 -7.53125 46.390625 -5.492188 46.390625 -3.859375 C 46.390625 -2.234375 46.425781 -1.320312 46.5 -1.125 C 46.5 -0.375 46.191406 0 45.578125 0 L 17.1875 0 C 16.644531 0 16.34375 -0.335938 16.28125 -1.015625 C 16.28125 -1.898438 16.296875 -3.390625 16.328125 -5.484375 C 16.359375 -7.585938 16.40625 -9.960938 16.46875 -12.609375 C 16.539062 -15.253906 16.609375 -17.882812 16.671875 -20.5 C 16.742188 -23.113281 16.796875 -25.367188 16.828125 -27.265625 C 16.867188 -29.160156 16.851562 -30.378906 16.78125 -30.921875 C 16.644531 -31.941406 16.59375 -32.957031 16.625 -33.96875 C 16.664062 -34.988281 16.3125 -35.875 15.5625 -36.625 C 14.957031 -37.164062 14.296875 -37.554688 13.578125 -37.796875 C 12.867188 -38.035156 12.140625 -38.1875 11.390625 -38.25 C 10.785156 -38.320312 9.867188 -38.359375 8.640625 -38.359375 C 7.421875 -38.359375 6.316406 -38.359375 5.328125 -38.359375 C 4.347656 -38.359375 3.859375 -38.359375 3.859375 -38.359375 C 3.253906 -38.359375 2.953125 -38.695312 2.953125 -39.375 C 2.953125 -39.375 2.953125 -39.832031 2.953125 -40.75 C 2.953125 -41.664062 2.929688 -42.679688 2.890625 -43.796875 C 2.859375 -44.910156 2.8125 -45.773438 2.75 -46.390625 C 2.675781 -47.335938 2.601562 -48.707031 2.53125 -50.5 C 2.46875 -52.300781 2.4375 -54.164062 2.4375 -56.09375 C 2.4375 -58.03125 2.4375 -59.691406 2.4375 -61.078125 C 2.4375 -62.472656 2.4375 -63.238281 2.4375 -63.375 C 2.4375 -63.78125 2.742188 -63.984375 3.359375 -63.984375 L 59.109375 -63.984375 C 59.109375 -63.984375 59.140625 -63.96875 59.203125 -63.9375 C 59.273438 -63.90625 59.3125 -63.851562 59.3125 -63.78125 Z M 59.3125 -63.78125 "/></g></g></g></g></g><g transform="matrix(1, 0, 0, 1, 71, 30)"><g clip-path="url(#8efde2c213)"><g clip-path="url(#4083f73318)"><g fill="#ffffff" fill-opacity="1"><g transform="translate(2.414431, 81.456721)"><g><path d="M 63.632812 -63.378906 L 63.632812 -32.757812 C 63.632812 -30.773438 63.617188 -28.433594 63.582031 -25.742188 C 63.546875 -23.078125 63.53125 -20.3125 63.53125 -17.445312 C 63.53125 -14.546875 63.515625 -11.851562 63.480469 -9.359375 L 63.378906 -3.191406 L 63.328125 -0.636719 C 63.328125 0.367188 63.046875 1.257812 62.488281 2.039062 C 62.058594 2.644531 61.507812 3.101562 60.839844 3.414062 C 60.265625 3.679688 59.652344 3.816406 59.003906 3.816406 L 34.996094 3.816406 C 33.65625 3.816406 32.554688 3.3125 31.691406 2.304688 C 31.109375 1.625 30.746094 0.796875 30.609375 -0.171875 L 30.570312 -0.441406 L 30.570312 -2.644531 C 30.570312 -3.765625 30.554688 -5.007812 30.519531 -6.367188 C 30.488281 -7.699219 30.441406 -8.808594 30.375 -9.699219 C 30.308594 -10.703125 30.207031 -11.96875 30.074219 -13.503906 C 29.96875 -14.734375 29.75 -15.800781 29.421875 -16.710938 C 29.410156 -16.742188 29.402344 -16.765625 29.394531 -16.785156 C 29.394531 -16.777344 29.402344 -16.769531 29.410156 -16.753906 C 29.476562 -16.652344 29.566406 -16.554688 29.683594 -16.453125 C 30.027344 -16.167969 30.410156 -16.023438 30.824219 -16.023438 C 31.363281 -16.023438 31.835938 -16.214844 32.242188 -16.597656 C 32.363281 -16.714844 32.457031 -16.828125 32.519531 -16.941406 C 32.523438 -16.953125 32.527344 -16.960938 32.53125 -16.964844 C 32.519531 -16.9375 32.507812 -16.90625 32.496094 -16.867188 C 32.214844 -15.914062 32.046875 -14.8125 31.992188 -13.566406 C 31.921875 -11.957031 31.851562 -10.71875 31.777344 -9.855469 L 27.976562 -10.171875 L 31.789062 -10.171875 C 31.789062 -8.667969 31.824219 -7.164062 31.890625 -5.660156 C 31.960938 -4.042969 31.996094 -2.394531 31.996094 -0.710938 C 31.996094 0.339844 31.714844 1.257812 31.15625 2.039062 C 30.726562 2.644531 30.175781 3.101562 29.507812 3.414062 C 28.933594 3.679688 28.320312 3.816406 27.671875 3.816406 L 3.457031 3.816406 C 2.789062 3.816406 2.160156 3.675781 1.574219 3.402344 C 0.824219 3.046875 0.230469 2.519531 -0.207031 1.820312 C -0.773438 0.917969 -0.980469 -0.117188 -0.835938 -1.285156 L 2.949219 -0.8125 L -0.855469 -1.105469 C -0.722656 -2.796875 -0.625 -5.253906 -0.558594 -8.472656 C -0.492188 -11.722656 -0.476562 -15.402344 -0.507812 -19.5 L -0.609375 -32.269531 L -0.761719 -44.96875 L -0.964844 -55.878906 C -1.03125 -59.039062 -1.101562 -61.453125 -1.167969 -63.125 L -1.171875 -63.199219 L -1.171875 -63.277344 C -1.171875 -64.328125 -0.890625 -65.246094 -0.332031 -66.027344 C 0.0976562 -66.632812 0.648438 -67.089844 1.316406 -67.402344 C 1.894531 -67.667969 2.503906 -67.804688 3.152344 -67.804688 L 27.46875 -67.804688 C 28.1875 -67.804688 28.859375 -67.636719 29.484375 -67.304688 C 30.148438 -66.949219 30.679688 -66.449219 31.082031 -65.808594 C 31.554688 -65.054688 31.789062 -64.175781 31.789062 -63.175781 L 31.789062 -63.054688 L 31.785156 -62.9375 C 31.71875 -61.929688 31.6875 -60.550781 31.6875 -58.800781 L 31.6875 -49.847656 C 31.6875 -48.765625 31.757812 -47.914062 31.894531 -47.292969 C 31.933594 -47.101562 31.976562 -46.960938 32.015625 -46.871094 C 31.996094 -46.921875 31.9375 -46.996094 31.851562 -47.089844 C 31.75 -47.199219 31.609375 -47.28125 31.429688 -47.332031 C 31.363281 -47.347656 31.304688 -47.359375 31.257812 -47.359375 C 31.273438 -47.359375 31.308594 -47.363281 31.359375 -47.375 L 32.148438 -43.640625 L 31.222656 -47.34375 C 31.085938 -47.308594 30.929688 -47.183594 30.753906 -46.96875 C 30.574219 -46.753906 30.480469 -46.570312 30.472656 -46.421875 C 30.539062 -47.75 30.570312 -49.300781 30.570312 -51.070312 C 30.570312 -51.855469 30.554688 -53.085938 30.519531 -54.757812 C 30.488281 -56.425781 30.4375 -58.058594 30.371094 -59.660156 C 30.300781 -61.339844 30.265625 -62.511719 30.265625 -63.175781 L 34.078125 -63.175781 L 30.292969 -62.703125 C 30.148438 -63.871094 30.355469 -64.90625 30.921875 -65.808594 C 31.359375 -66.507812 31.953125 -67.035156 32.703125 -67.390625 C 33.289062 -67.664062 33.917969 -67.804688 34.589844 -67.804688 L 59.207031 -67.804688 C 60.429688 -67.804688 61.464844 -67.378906 62.3125 -66.535156 C 62.988281 -65.855469 63.414062 -65.011719 63.582031 -64.003906 L 63.632812 -63.695312 Z M 56.003906 -63.378906 L 59.816406 -63.378906 L 56.054688 -62.75 C 56.15625 -62.148438 56.441406 -61.613281 56.917969 -61.136719 C 57.558594 -60.496094 58.324219 -60.171875 59.207031 -60.171875 L 34.589844 -60.171875 C 35.054688 -60.171875 35.507812 -60.277344 35.953125 -60.484375 C 36.558594 -60.769531 37.035156 -61.195312 37.390625 -61.761719 C 37.785156 -62.394531 37.945312 -63.023438 37.867188 -63.648438 L 37.894531 -63.414062 L 37.894531 -63.175781 C 37.894531 -62.617188 37.925781 -61.550781 37.992188 -59.976562 C 38.0625 -58.320312 38.113281 -56.632812 38.148438 -54.910156 C 38.183594 -53.1875 38.199219 -51.90625 38.199219 -51.070312 C 38.199219 -49.175781 38.164062 -47.503906 38.09375 -46.050781 C 38.019531 -44.511719 37.535156 -43.203125 36.644531 -42.121094 C 35.753906 -41.039062 34.5625 -40.3125 33.070312 -39.941406 L 33.003906 -39.925781 L 32.933594 -39.910156 C 31.679688 -39.644531 30.496094 -39.667969 29.378906 -39.980469 C 28.164062 -40.320312 27.117188 -40.964844 26.238281 -41.925781 C 24.785156 -43.5 24.058594 -46.144531 24.058594 -49.847656 L 24.058594 -58.800781 C 24.058594 -60.710938 24.09375 -62.25 24.167969 -63.414062 L 27.976562 -63.175781 L 24.160156 -63.175781 C 24.160156 -62.714844 24.3125 -62.246094 24.613281 -61.761719 C 24.929688 -61.253906 25.359375 -60.855469 25.894531 -60.570312 C 26.390625 -60.304688 26.917969 -60.171875 27.46875 -60.171875 L 3.152344 -60.171875 C 3.632812 -60.171875 4.097656 -60.277344 4.542969 -60.488281 C 5.085938 -60.738281 5.53125 -61.109375 5.875 -61.59375 C 6.265625 -62.136719 6.460938 -62.699219 6.460938 -63.277344 L 2.644531 -63.277344 L 6.457031 -63.429688 C 6.527344 -61.710938 6.59375 -59.242188 6.664062 -56.023438 L 6.867188 -45.0625 L 7.019531 -32.328125 L 7.121094 -19.5625 C 7.15625 -15.390625 7.136719 -11.640625 7.070312 -8.3125 C 7 -4.953125 6.894531 -2.355469 6.753906 -0.519531 L 6.746094 -0.429688 L 6.734375 -0.339844 C 6.8125 -0.964844 6.65625 -1.59375 6.261719 -2.226562 C 5.90625 -2.792969 5.425781 -3.21875 4.824219 -3.503906 C 4.378906 -3.710938 3.925781 -3.816406 3.457031 -3.816406 L 27.671875 -3.816406 C 27.191406 -3.816406 26.726562 -3.710938 26.28125 -3.5 C 25.738281 -3.25 25.292969 -2.878906 24.949219 -2.394531 C 24.558594 -1.851562 24.363281 -1.289062 24.363281 -0.710938 C 24.363281 -2.285156 24.332031 -3.824219 24.265625 -5.328125 C 24.195312 -6.941406 24.160156 -8.558594 24.160156 -10.171875 L 24.160156 -10.332031 L 24.175781 -10.488281 C 24.238281 -11.253906 24.300781 -12.390625 24.367188 -13.898438 C 24.449219 -15.773438 24.722656 -17.488281 25.183594 -19.042969 C 25.5625 -20.320312 26.167969 -21.351562 26.992188 -22.132812 C 28.058594 -23.148438 29.335938 -23.652344 30.824219 -23.652344 C 32.257812 -23.652344 33.511719 -23.203125 34.582031 -22.304688 C 35.472656 -21.558594 36.144531 -20.558594 36.601562 -19.300781 C 37.152344 -17.769531 37.511719 -16.058594 37.675781 -14.164062 C 37.816406 -12.582031 37.917969 -11.273438 37.988281 -10.242188 C 38.058594 -9.230469 38.113281 -8.003906 38.148438 -6.554688 C 38.183594 -5.132812 38.199219 -3.828125 38.199219 -2.644531 L 38.199219 -0.710938 L 34.386719 -0.710938 L 38.160156 -1.25 C 38.089844 -1.746094 37.867188 -2.21875 37.484375 -2.660156 C 36.824219 -3.429688 35.996094 -3.816406 34.996094 -3.816406 L 59.003906 -3.816406 C 58.523438 -3.816406 58.0625 -3.710938 57.613281 -3.5 C 57.070312 -3.25 56.625 -2.878906 56.28125 -2.394531 C 55.890625 -1.851562 55.699219 -1.316406 55.699219 -0.789062 L 55.75 -3.320312 L 55.851562 -9.460938 C 55.882812 -11.921875 55.902344 -14.582031 55.902344 -17.445312 C 55.902344 -20.34375 55.917969 -23.140625 55.953125 -25.835938 C 55.984375 -28.5 56.003906 -30.804688 56.003906 -32.757812 Z M 56.003906 -63.378906 "/></g></g></g></g><g fill="#000000" fill-opacity="1"><g transform="translate(2.414431, 81.456721)"><g><path d="M 59.8125 -63.375 C 59.8125 -63.375 59.8125 -62.644531 59.8125 -61.1875 C 59.8125 -59.726562 59.8125 -57.8125 59.8125 -55.4375 C 59.8125 -53.070312 59.8125 -50.515625 59.8125 -47.765625 C 59.8125 -45.015625 59.8125 -42.316406 59.8125 -39.671875 C 59.8125 -37.023438 59.8125 -34.722656 59.8125 -32.765625 C 59.8125 -30.796875 59.796875 -28.46875 59.765625 -25.78125 C 59.734375 -23.101562 59.71875 -20.320312 59.71875 -17.4375 C 59.71875 -14.5625 59.695312 -11.882812 59.65625 -9.40625 C 59.625 -6.9375 59.59375 -4.882812 59.5625 -3.25 C 59.53125 -1.625 59.515625 -0.78125 59.515625 -0.71875 C 59.515625 -0.238281 59.34375 0 59 0 L 35 0 C 34.65625 0 34.453125 -0.238281 34.390625 -0.71875 C 34.390625 -0.851562 34.390625 -1.492188 34.390625 -2.640625 C 34.390625 -3.796875 34.367188 -5.066406 34.328125 -6.453125 C 34.296875 -7.847656 34.25 -9.019531 34.1875 -9.96875 C 34.113281 -10.988281 34.007812 -12.273438 33.875 -13.828125 C 33.738281 -15.390625 33.445312 -16.78125 33 -18 C 32.5625 -19.226562 31.835938 -19.84375 30.828125 -19.84375 C 29.878906 -19.84375 29.21875 -19.210938 28.84375 -17.953125 C 28.46875 -16.703125 28.242188 -15.296875 28.171875 -13.734375 C 28.109375 -12.171875 28.046875 -10.984375 27.984375 -10.171875 C 27.984375 -8.609375 28.015625 -7.046875 28.078125 -5.484375 C 28.148438 -3.929688 28.1875 -2.34375 28.1875 -0.71875 C 28.1875 -0.238281 28.015625 0 27.671875 0 L 3.453125 0 C 3.046875 0 2.878906 -0.269531 2.953125 -0.8125 C 3.085938 -2.570312 3.1875 -5.097656 3.25 -8.390625 C 3.320312 -11.679688 3.335938 -15.394531 3.296875 -19.53125 C 3.265625 -23.664062 3.234375 -27.921875 3.203125 -32.296875 C 3.171875 -36.671875 3.117188 -40.910156 3.046875 -45.015625 C 2.984375 -49.117188 2.914062 -52.765625 2.84375 -55.953125 C 2.78125 -59.140625 2.710938 -61.582031 2.640625 -63.28125 C 2.640625 -63.75 2.8125 -63.984375 3.15625 -63.984375 L 27.46875 -63.984375 C 27.8125 -63.984375 27.984375 -63.710938 27.984375 -63.171875 C 27.910156 -62.085938 27.875 -60.628906 27.875 -58.796875 C 27.875 -56.972656 27.875 -55.195312 27.875 -53.46875 C 27.875 -51.738281 27.875 -50.53125 27.875 -49.84375 C 27.875 -47.132812 28.265625 -45.351562 29.046875 -44.5 C 29.828125 -43.65625 30.859375 -43.367188 32.140625 -43.640625 C 33.503906 -43.984375 34.21875 -44.847656 34.28125 -46.234375 C 34.351562 -47.628906 34.390625 -49.242188 34.390625 -51.078125 C 34.390625 -51.890625 34.367188 -53.140625 34.328125 -54.828125 C 34.296875 -56.523438 34.242188 -58.1875 34.171875 -59.8125 C 34.109375 -61.445312 34.078125 -62.566406 34.078125 -63.171875 C 34.015625 -63.710938 34.1875 -63.984375 34.59375 -63.984375 L 59.203125 -63.984375 C 59.546875 -63.984375 59.75 -63.78125 59.8125 -63.375 Z M 59.8125 -63.375 "/></g></g></g></g></g></svg>