<svg xmlns="http://www.w3.org/2000/svg" xmlns:xlink="http://www.w3.org/1999/xlink" width="1250" zoomAndPan="magnify" viewBox="0 0 937.5 562.499983" height="750" preserveAspectRatio="xMidYMid meet" version="1.0"><defs><clipPath id="44d40e504d"><path d="M 0.167969 35 L 628 35 L 628 527 L 0.167969 527 Z M 0.167969 35 " clip-rule="nonzero"/></clipPath><clipPath id="cc33a6f6f2"><path d="M 318 44 L 936.832031 44 L 936.832031 535.171875 L 318 535.171875 Z M 318 44 " clip-rule="nonzero"/></clipPath><clipPath id="5d704bd57b"><path d="M 29.9375 56.199219 L 193.292969 56.199219 L 193.292969 219.554688 L 29.9375 219.554688 Z M 29.9375 56.199219 " clip-rule="nonzero"/></clipPath></defs><g clip-path="url(#44d40e504d)"><path fill="#777777" d="M 627.957031 205.886719 L 563.296875 111.371094 C 537.234375 73.285156 497.382812 46.078125 451.90625 38.222656 C 385.957031 26.835938 320.90625 55.328125 284.277344 109.140625 L 0.167969 526.5625 C 109.511719 526.5625 211.800781 472.5625 273.472656 382.273438 L 424.179688 161.660156 L 539.75 335.019531 L 627.957031 205.886719 " fill-opacity="1" fill-rule="nonzero"/></g><g clip-path="url(#cc33a6f6f2)"><path fill="#000000" d="M 663.527344 188.640625 L 512.828125 409.253906 L 388.324219 222.492188 L 318.40625 378.71875 L 373.714844 459.554688 C 399.777344 497.644531 439.640625 524.847656 485.117188 532.691406 C 551.066406 544.074219 616.105469 515.582031 652.722656 461.773438 L 936.832031 44.351562 C 827.488281 44.351562 725.203125 98.355469 663.527344 188.640625 " fill-opacity="1" fill-rule="nonzero"/></g><path fill="#000000" d="M 385.503906 218.269531 L 297.136719 347.632812 L 318.40625 378.71875 L 388.324219 222.492188 L 385.503906 218.269531 " fill-opacity="1" fill-rule="nonzero"/><g clip-path="url(#5d704bd57b)"><path fill="#ffffff" d="M 193.269531 219.53125 L 29.9375 219.53125 L 29.9375 56.199219 L 193.269531 56.199219 Z M 30.976562 218.492188 L 192.230469 218.492188 L 192.230469 57.238281 L 30.976562 57.238281 Z M 30.976562 218.492188 " fill-opacity="1" fill-rule="nonzero"/></g></svg>